<?xml version="1.0" encoding="UTF-8"?> <svg xmlns="http://www.w3.org/2000/svg" width="182" height="36" viewBox="0 0 182 36" fill="none"> <path d="M39.232 5.004H46.344V15H45.126V6.026H40.45V15H39.232V5.004ZM50.0223 17.73H48.8323V7.608H49.9803V8.728H49.9943C50.293 8.28 50.6476 7.95333 51.0583 7.748C51.4783 7.54267 51.9123 7.44 52.3603 7.44C52.8456 7.44 53.2796 7.54267 53.6623 7.748C54.0543 7.944 54.381 8.21933 54.6423 8.574C54.913 8.91933 55.1183 9.32533 55.2583 9.792C55.3983 10.2587 55.4683 10.7627 55.4683 11.304C55.4683 11.8453 55.3936 12.354 55.2443 12.83C55.1043 13.2967 54.899 13.7027 54.6283 14.048C54.367 14.3933 54.0356 14.6687 53.6343 14.874C53.2423 15.07 52.8036 15.168 52.3183 15.168C51.8703 15.168 51.455 15.0793 51.0723 14.902C50.6896 14.7247 50.349 14.4167 50.0503 13.978H50.0223V17.73ZM54.2783 11.304C54.2783 10.9027 54.2316 10.5247 54.1383 10.17C54.0543 9.81533 53.9236 9.50733 53.7463 9.246C53.5783 8.97533 53.359 8.76533 53.0883 8.616C52.827 8.45733 52.5236 8.378 52.1783 8.378C51.8236 8.378 51.5063 8.45267 51.2263 8.602C50.9556 8.75133 50.7223 8.96133 50.5263 9.232C50.3396 9.49333 50.195 9.80133 50.0923 10.156C49.999 10.5107 49.9523 10.8933 49.9523 11.304C49.9523 11.7147 49.999 12.0973 50.0923 12.452C50.195 12.8067 50.3396 13.1193 50.5263 13.39C50.7223 13.6513 50.9556 13.8567 51.2263 14.006C51.5063 14.1553 51.8236 14.23 52.1783 14.23C52.5236 14.23 52.827 14.1553 53.0883 14.006C53.359 13.8473 53.5783 13.6373 53.7463 13.376C53.9236 13.1053 54.0543 12.7927 54.1383 12.438C54.2316 12.0833 54.2783 11.7053 54.2783 11.304ZM57.5183 7.608H58.7083V13.684H58.7363L62.2223 7.608H63.8183V15H62.6283V8.868H62.6003L59.0723 15H57.5183V7.608ZM66.2452 7.608H67.4352V10.716H71.1312V7.608H72.3212V15H71.1312V11.654H67.4352V15H66.2452V7.608ZM74.7397 7.608H75.9297V13.684H75.9577L79.4437 7.608H81.0397V15H79.8497V8.868H79.8217L76.2937 15H74.7397V7.608ZM83.4667 7.608H85.3427L87.4427 14.006H87.4707L89.6267 7.608H91.5307V15H90.3687V8.532H90.3407L88.1427 15H86.7427L84.6147 8.532H84.6007V15H83.4667V7.608ZM98.2133 10.212C98.232 8.98933 97.6346 8.378 96.4213 8.378C96.1226 8.378 95.81 8.41533 95.4833 8.49C95.1566 8.56467 94.8393 8.672 94.5313 8.812L94.2653 7.874C94.5546 7.75267 94.9 7.65 95.3013 7.566C95.712 7.482 96.104 7.44 96.4773 7.44C97.3733 7.43067 98.0826 7.64533 98.6053 8.084C99.128 8.52267 99.394 9.19 99.4033 10.086V13.32C99.4033 13.5627 99.4126 13.8427 99.4313 14.16C99.4593 14.468 99.4966 14.748 99.5433 15H98.4933C98.4093 14.692 98.3533 14.3233 98.3253 13.894H98.2973C98.092 14.258 97.798 14.5613 97.4153 14.804C97.0326 15.0373 96.538 15.1587 95.9313 15.168C95.6233 15.168 95.3246 15.126 95.0353 15.042C94.746 14.958 94.4846 14.8273 94.2513 14.65C94.0273 14.4633 93.8453 14.23 93.7053 13.95C93.5653 13.67 93.4953 13.334 93.4953 12.942C93.5046 12.41 93.6306 11.9807 93.8733 11.654C94.116 11.318 94.4566 11.0567 94.8953 10.87C95.3433 10.6833 95.8473 10.5573 96.4073 10.492C96.9766 10.4267 97.5786 10.394 98.2133 10.394V10.212ZM97.8773 11.248C97.4573 11.248 97.0513 11.2713 96.6593 11.318C96.2766 11.3647 95.936 11.444 95.6373 11.556C95.348 11.668 95.11 11.836 94.9233 12.06C94.7366 12.2747 94.6433 12.5453 94.6433 12.872C94.634 13.264 94.7413 13.5907 94.9653 13.852C95.1986 14.104 95.544 14.23 96.0013 14.23C96.3653 14.23 96.6873 14.1693 96.9673 14.048C97.2473 13.9173 97.476 13.7447 97.6533 13.53C97.84 13.306 97.98 13.054 98.0733 12.774C98.1666 12.494 98.2133 12.1953 98.2133 11.878V11.248H97.8773ZM102.579 11.626C102.617 12.4007 102.864 13.0307 103.321 13.516C103.779 13.992 104.413 14.23 105.225 14.23C105.552 14.23 105.888 14.202 106.233 14.146C106.579 14.0807 106.896 13.9873 107.185 13.866L107.381 14.776C107.073 14.9067 106.723 15.0047 106.331 15.07C105.949 15.1353 105.561 15.168 105.169 15.168C104.553 15.1587 104.017 15.0653 103.559 14.888C103.111 14.7013 102.724 14.4307 102.397 14.076C102.071 13.7213 101.828 13.3107 101.669 12.844C101.511 12.368 101.431 11.8593 101.431 11.318C101.431 10.758 101.506 10.2447 101.655 9.778C101.814 9.302 102.038 8.89133 102.327 8.546C102.617 8.19133 102.967 7.92067 103.377 7.734C103.788 7.538 104.25 7.44 104.763 7.44C105.277 7.44 105.725 7.52867 106.107 7.706C106.499 7.874 106.821 8.11667 107.073 8.434C107.325 8.742 107.512 9.12 107.633 9.568C107.764 10.016 107.829 10.5107 107.829 11.052V11.626H102.579ZM104.777 8.378C104.133 8.378 103.62 8.588 103.237 9.008C102.864 9.428 102.645 9.988 102.579 10.688H106.751V10.632C106.742 9.92267 106.56 9.372 106.205 8.98C105.851 8.588 105.375 8.38733 104.777 8.378ZM109.853 7.608H111.729L113.829 14.006H113.857L116.013 7.608H117.917V15H116.755V8.532H116.727L114.529 15H113.129L111.001 8.532H110.987V15H109.853V7.608ZM124.08 7.608H130.072V15H128.882V8.546H125.27V15H124.08V7.608ZM132.03 15.056C131.797 15.056 131.573 15.0373 131.358 15V14.062C131.433 14.0713 131.498 14.0807 131.554 14.09C131.62 14.09 131.68 14.09 131.736 14.09C132.11 14.09 132.394 13.9827 132.59 13.768C132.796 13.544 132.95 13.18 133.052 12.676C133.155 12.1627 133.225 11.4953 133.262 10.674C133.3 9.84333 133.337 8.82133 133.374 7.608H138.414V15H137.224V8.546H134.508C134.499 9.59133 134.466 10.5153 134.41 11.318C134.364 12.1207 134.261 12.802 134.102 13.362C133.944 13.9127 133.696 14.3327 133.36 14.622C133.034 14.9113 132.59 15.056 132.03 15.056ZM145.093 10.212C145.111 8.98933 144.514 8.378 143.301 8.378C143.002 8.378 142.689 8.41533 142.363 8.49C142.036 8.56467 141.719 8.672 141.411 8.812L141.145 7.874C141.434 7.75267 141.779 7.65 142.181 7.566C142.591 7.482 142.983 7.44 143.357 7.44C144.253 7.43067 144.962 7.64533 145.485 8.084C146.007 8.52267 146.273 9.19 146.283 10.086V13.32C146.283 13.5627 146.292 13.8427 146.311 14.16C146.339 14.468 146.376 14.748 146.423 15H145.373C145.289 14.692 145.233 14.3233 145.205 13.894H145.177C144.971 14.258 144.677 14.5613 144.295 14.804C143.912 15.0373 143.417 15.1587 142.811 15.168C142.503 15.168 142.204 15.126 141.915 15.042C141.625 14.958 141.364 14.8273 141.131 14.65C140.907 14.4633 140.725 14.23 140.585 13.95C140.445 13.67 140.375 13.334 140.375 12.942C140.384 12.41 140.51 11.9807 140.753 11.654C140.995 11.318 141.336 11.0567 141.775 10.87C142.223 10.6833 142.727 10.5573 143.287 10.492C143.856 10.4267 144.458 10.394 145.093 10.394V10.212ZM144.757 11.248C144.337 11.248 143.931 11.2713 143.539 11.318C143.156 11.3647 142.815 11.444 142.517 11.556C142.227 11.668 141.989 11.836 141.803 12.06C141.616 12.2747 141.523 12.5453 141.523 12.872C141.513 13.264 141.621 13.5907 141.845 13.852C142.078 14.104 142.423 14.23 142.881 14.23C143.245 14.23 143.567 14.1693 143.847 14.048C144.127 13.9173 144.355 13.7447 144.533 13.53C144.719 13.306 144.859 13.054 144.953 12.774C145.046 12.494 145.093 12.1953 145.093 11.878V11.248H144.757ZM150.047 8.546H147.639V7.608H153.645V8.546H151.237V15H150.047V8.546ZM155.656 11.626C155.694 12.4007 155.941 13.0307 156.398 13.516C156.856 13.992 157.49 14.23 158.302 14.23C158.629 14.23 158.965 14.202 159.31 14.146C159.656 14.0807 159.973 13.9873 160.262 13.866L160.458 14.776C160.15 14.9067 159.8 15.0047 159.408 15.07C159.026 15.1353 158.638 15.168 158.246 15.168C157.63 15.1587 157.094 15.0653 156.636 14.888C156.188 14.7013 155.801 14.4307 155.474 14.076C155.148 13.7213 154.905 13.3107 154.746 12.844C154.588 12.368 154.508 11.8593 154.508 11.318C154.508 10.758 154.583 10.2447 154.732 9.778C154.891 9.302 155.115 8.89133 155.404 8.546C155.694 8.19133 156.044 7.92067 156.454 7.734C156.865 7.538 157.327 7.44 157.84 7.44C158.354 7.44 158.802 7.52867 159.184 7.706C159.576 7.874 159.898 8.11667 160.15 8.434C160.402 8.742 160.589 9.12 160.71 9.568C160.841 10.016 160.906 10.5107 160.906 11.052V11.626H155.656ZM157.854 8.378C157.21 8.378 156.697 8.588 156.314 9.008C155.941 9.428 155.722 9.988 155.656 10.688H159.828V10.632C159.819 9.92267 159.637 9.372 159.282 8.98C158.928 8.588 158.452 8.38733 157.854 8.378ZM164.98 11.094L161.816 7.608H163.328L166.324 11.052H166.352V7.608H167.542V11.052H167.57L170.566 7.608H172.078L168.9 11.094L172.218 15H170.692L167.57 11.234H167.542V15H166.352V11.234H166.324L163.202 15H161.676L164.98 11.094ZM173.666 7.608H174.856V13.684H174.884L178.37 7.608H179.966V15H178.776V8.868H178.748L175.22 15H173.666V7.608ZM45.644 29.29C45.644 29.8967 45.5647 30.438 45.406 30.914C45.2473 31.39 45.0187 31.796 44.72 32.132C44.4213 32.468 44.062 32.7247 43.642 32.902C43.222 33.0793 42.746 33.168 42.214 33.168C41.682 33.168 41.206 33.0793 40.786 32.902C40.366 32.7247 40.0067 32.468 39.708 32.132C39.4093 31.796 39.1807 31.39 39.022 30.914C38.8633 30.438 38.784 29.8967 38.784 29.29C38.784 28.6927 38.8633 28.156 39.022 27.68C39.19 27.1947 39.4187 26.7887 39.708 26.462C39.9973 26.1353 40.3567 25.8833 40.786 25.706C41.2153 25.5287 41.6913 25.44 42.214 25.44C42.746 25.44 43.222 25.5287 43.642 25.706C44.0713 25.8833 44.4307 26.1353 44.72 26.462C45.0187 26.7887 45.2473 27.1947 45.406 27.68C45.5647 28.156 45.644 28.6927 45.644 29.29ZM44.454 29.29C44.454 28.8607 44.4073 28.4687 44.314 28.114C44.23 27.7593 44.0947 27.456 43.908 27.204C43.7307 26.9427 43.4973 26.742 43.208 26.602C42.928 26.4527 42.5967 26.378 42.214 26.378C41.8313 26.378 41.4953 26.4527 41.206 26.602C40.926 26.742 40.6927 26.9427 40.506 27.204C40.3287 27.456 40.1933 27.7593 40.1 28.114C40.016 28.4687 39.974 28.8607 39.974 29.29C39.974 29.7193 40.0207 30.116 40.114 30.48C40.2073 30.8347 40.3427 31.1427 40.52 31.404C40.7067 31.6653 40.94 31.8707 41.22 32.02C41.5 32.16 41.8313 32.23 42.214 32.23C42.5967 32.23 42.928 32.16 43.208 32.02C43.4973 31.8707 43.7307 31.6653 43.908 31.404C44.0947 31.1427 44.23 30.8347 44.314 30.48C44.4073 30.116 44.454 29.7193 44.454 29.29ZM51.0579 33.098C50.4885 33.07 49.9752 32.972 49.5179 32.804C49.0605 32.6267 48.6639 32.3793 48.3279 32.062C47.9919 31.7353 47.7305 31.3433 47.5439 30.886C47.3572 30.4193 47.2639 29.8873 47.2639 29.29C47.2639 28.6927 47.3572 28.1653 47.5439 27.708C47.7305 27.2507 47.9919 26.8633 48.3279 26.546C48.6639 26.2287 49.0605 25.986 49.5179 25.818C49.9845 25.6407 50.4979 25.538 51.0579 25.51V22.71H52.2479V25.51C52.8172 25.538 53.3305 25.6407 53.7879 25.818C54.2452 25.986 54.6419 26.2287 54.9779 26.546C55.3139 26.8633 55.5752 27.2507 55.7619 27.708C55.9485 28.1653 56.0419 28.6927 56.0419 29.29C56.0419 29.8873 55.9485 30.4193 55.7619 30.886C55.5752 31.3433 55.3139 31.7307 54.9779 32.048C54.6512 32.3653 54.2545 32.6127 53.7879 32.79C53.3305 32.9673 52.8172 33.07 52.2479 33.098V35.73H51.0579V33.098ZM51.0579 26.448C50.2459 26.4947 49.6112 26.7653 49.1539 27.26C48.6965 27.7547 48.4632 28.4313 48.4539 29.29C48.4632 30.1487 48.6919 30.83 49.1399 31.334C49.5972 31.838 50.2365 32.1133 51.0579 32.16V26.448ZM52.2479 32.16C53.0599 32.1133 53.6945 31.838 54.1519 31.334C54.6092 30.83 54.8425 30.1487 54.8519 29.29C54.8519 28.4407 54.6185 27.7687 54.1519 27.274C53.6852 26.77 53.0505 26.4947 52.2479 26.448V32.16ZM58.0515 25.608H59.2415V31.684H59.2695L62.7555 25.608H64.3515V33H63.1615V26.868H63.1335L59.6055 33H58.0515V25.608ZM72.8544 33H66.7784V25.608H67.9684V32.062H71.5804V25.608H72.7704V32.062H73.9184V35.142H72.9664L72.8544 33ZM75.3823 25.608H76.5723V31.684H76.6003L80.0863 25.608H81.6823V33H80.4923V26.868H80.4643L76.9363 33H75.3823V25.608ZM88.3653 28.212C88.3839 26.9893 87.7866 26.378 86.5733 26.378C86.2746 26.378 85.9619 26.4153 85.6353 26.49C85.3086 26.5647 84.9913 26.672 84.6833 26.812L84.4173 25.874C84.7066 25.7527 85.0519 25.65 85.4533 25.566C85.8639 25.482 86.2559 25.44 86.6293 25.44C87.5253 25.4307 88.2346 25.6453 88.7573 26.084C89.2799 26.5227 89.5459 27.19 89.5553 28.086V31.32C89.5553 31.5627 89.5646 31.8427 89.5833 32.16C89.6113 32.468 89.6486 32.748 89.6953 33H88.6453C88.5613 32.692 88.5053 32.3233 88.4773 31.894H88.4493C88.2439 32.258 87.9499 32.5613 87.5673 32.804C87.1846 33.0373 86.6899 33.1587 86.0833 33.168C85.7753 33.168 85.4766 33.126 85.1873 33.042C84.8979 32.958 84.6366 32.8273 84.4033 32.65C84.1793 32.4633 83.9973 32.23 83.8573 31.95C83.7173 31.67 83.6473 31.334 83.6473 30.942C83.6566 30.41 83.7826 29.9807 84.0253 29.654C84.2679 29.318 84.6086 29.0567 85.0473 28.87C85.4953 28.6833 85.9993 28.5573 86.5593 28.492C87.1286 28.4267 87.7306 28.394 88.3653 28.394V28.212ZM88.0293 29.248C87.6093 29.248 87.2033 29.2713 86.8113 29.318C86.4286 29.3647 86.0879 29.444 85.7893 29.556C85.4999 29.668 85.2619 29.836 85.0753 30.06C84.8886 30.2747 84.7953 30.5453 84.7953 30.872C84.7859 31.264 84.8933 31.5907 85.1173 31.852C85.3506 32.104 85.6959 32.23 86.1533 32.23C86.5173 32.23 86.8393 32.1693 87.1193 32.048C87.3993 31.9173 87.6279 31.7447 87.8053 31.53C87.9919 31.306 88.1319 31.054 88.2253 30.774C88.3186 30.494 88.3653 30.1953 88.3653 29.878V29.248H88.0293ZM91.4992 33.056C91.2659 33.056 91.0419 33.0373 90.8272 33V32.062C90.9019 32.0713 90.9672 32.0807 91.0232 32.09C91.0886 32.09 91.1492 32.09 91.2052 32.09C91.5786 32.09 91.8632 31.9827 92.0592 31.768C92.2646 31.544 92.4186 31.18 92.5212 30.676C92.6239 30.1627 92.6939 29.4953 92.7312 28.674C92.7686 27.8433 92.8059 26.8213 92.8432 25.608H97.8832V33H96.6932V26.546H93.9772C93.9679 27.5913 93.9352 28.5153 93.8792 29.318C93.8326 30.1207 93.7299 30.802 93.5712 31.362C93.4126 31.9127 93.1652 32.3327 92.8292 32.622C92.5026 32.9113 92.0592 33.056 91.4992 33.056ZM100.305 25.608H101.495V28.408H103.427C103.782 28.408 104.113 28.45 104.421 28.534C104.739 28.618 105.014 28.7533 105.247 28.94C105.49 29.1173 105.681 29.3507 105.821 29.64C105.961 29.92 106.031 30.2653 106.031 30.676C106.031 31.124 105.961 31.4973 105.821 31.796C105.681 32.0947 105.49 32.3327 105.247 32.51C105.014 32.6873 104.739 32.8133 104.421 32.888C104.104 32.9627 103.768 33 103.413 33H100.305V25.608ZM103.175 32.062C103.427 32.062 103.647 32.0433 103.833 32.006C104.029 31.9687 104.202 31.9033 104.351 31.81C104.51 31.7073 104.631 31.5673 104.715 31.39C104.799 31.2127 104.841 30.9793 104.841 30.69C104.841 30.4287 104.799 30.2093 104.715 30.032C104.631 29.8547 104.515 29.7193 104.365 29.626C104.216 29.5233 104.048 29.4533 103.861 29.416C103.684 29.3693 103.488 29.346 103.273 29.346H101.495V32.062H103.175ZM107.857 25.608H109.047V28.716H112.743V25.608H113.933V33H112.743V29.654H109.047V33H107.857V25.608ZM122.833 29.29C122.833 29.8967 122.754 30.438 122.595 30.914C122.436 31.39 122.208 31.796 121.909 32.132C121.61 32.468 121.251 32.7247 120.831 32.902C120.411 33.0793 119.935 33.168 119.403 33.168C118.871 33.168 118.395 33.0793 117.975 32.902C117.555 32.7247 117.196 32.468 116.897 32.132C116.598 31.796 116.37 31.39 116.211 30.914C116.052 30.438 115.973 29.8967 115.973 29.29C115.973 28.6927 116.052 28.156 116.211 27.68C116.379 27.1947 116.608 26.7887 116.897 26.462C117.186 26.1353 117.546 25.8833 117.975 25.706C118.404 25.5287 118.88 25.44 119.403 25.44C119.935 25.44 120.411 25.5287 120.831 25.706C121.26 25.8833 121.62 26.1353 121.909 26.462C122.208 26.7887 122.436 27.1947 122.595 27.68C122.754 28.156 122.833 28.6927 122.833 29.29ZM121.643 29.29C121.643 28.8607 121.596 28.4687 121.503 28.114C121.419 27.7593 121.284 27.456 121.097 27.204C120.92 26.9427 120.686 26.742 120.397 26.602C120.117 26.4527 119.786 26.378 119.403 26.378C119.02 26.378 118.684 26.4527 118.395 26.602C118.115 26.742 117.882 26.9427 117.695 27.204C117.518 27.456 117.382 27.7593 117.289 28.114C117.205 28.4687 117.163 28.8607 117.163 29.29C117.163 29.7193 117.21 30.116 117.303 30.48C117.396 30.8347 117.532 31.1427 117.709 31.404C117.896 31.6653 118.129 31.8707 118.409 32.02C118.689 32.16 119.02 32.23 119.403 32.23C119.786 32.23 120.117 32.16 120.397 32.02C120.686 31.8707 120.92 31.6653 121.097 31.404C121.284 31.1427 121.419 30.8347 121.503 30.48C121.596 30.116 121.643 29.7193 121.643 29.29Z" fill="white"></path> <path d="M10.5 14.4996V12.9996H1.5C0.6735 12.9996 0 13.6731 0 14.4996V17.4996H10.8165C10.608 16.5831 10.5 15.5961 10.5 14.4996ZM23.9385 20.4996C22.9155 22.0761 21.3555 23.4171 19.1205 24.7011C18.777 24.8976 18.39 24.9996 18 24.9996C17.61 24.9996 17.223 24.8976 16.884 24.7041C14.649 23.4171 13.089 22.0746 12.0645 20.4996H0V27.9996C0 28.8276 0.6735 29.4996 1.5 29.4996H22.5C23.328 29.4996 24 28.8276 24 27.9996V20.4996H23.9385ZM6.75 24.9996H3.75C3.336 24.9996 3 24.6636 3 24.2496C3 23.8356 3.336 23.4996 3.75 23.4996H6.75C7.164 23.4996 7.5 23.8356 7.5 24.2496C7.5 24.6636 7.164 24.9996 6.75 24.9996Z" fill="white"></path> <path d="M23.5455 10.8111L18.2955 8.56113C18.2019 8.52104 18.1011 8.50038 17.9993 8.50038C17.8974 8.50038 17.7966 8.52104 17.703 8.56113L12.453 10.8111C12.1785 10.9281 12 11.1996 12 11.4996V14.4996C12 18.6261 13.5255 21.0381 17.6265 23.4006C17.742 23.4666 17.871 23.4996 18 23.4996C18.129 23.4996 18.258 23.4666 18.3735 23.4006C22.4745 21.0441 24 18.6321 24 14.4996V11.4996C24 11.1996 23.8215 10.9281 23.5455 10.8111ZM20.8365 14.2191L17.8365 17.9691C17.6925 18.1461 17.4765 18.2496 17.25 18.2496H17.2185C17.1005 18.2445 16.9855 18.2117 16.8825 18.1538C16.7796 18.096 16.6917 18.0147 16.626 17.9166L15.126 15.6666C14.8965 15.3216 14.9895 14.8566 15.3345 14.6271C15.6765 14.3991 16.143 14.4891 16.374 14.8356L17.3055 16.2321L19.6635 13.2831C19.923 12.9606 20.3955 12.9096 20.718 13.1661C21.042 13.4226 21.093 13.8951 20.8365 14.2191Z" fill="white"></path> </svg> 