<?xml version="1.0" encoding="UTF-8"?> <svg xmlns="http://www.w3.org/2000/svg" width="35" height="35" viewBox="0 0 20 40" fill="none">
    <path d="M10.5 14.4996V12.9996H1.5C0.6735 12.9996 0 13.6731 0 14.4996V17.4996H10.8165C10.608 16.5831 10.5 15.5961 10.5 14.4996ZM23.9385 20.4996C22.9155 22.0761 21.3555 23.4171 19.1205 24.7011C18.777 24.8976 18.39 24.9996 18 24.9996C17.61 24.9996 17.223 24.8976 16.884 24.7041C14.649 23.4171 13.089 22.0746 12.0645 20.4996H0V27.9996C0 28.8276 0.6735 29.4996 1.5 29.4996H22.5C23.328 29.4996 24 28.8276 24 27.9996V20.4996H23.9385ZM6.75 24.9996H3.75C3.336 24.9996 3 24.6636 3 24.2496C3 23.8356 3.336 23.4996 3.75 23.4996H6.75C7.164 23.4996 7.5 23.8356 7.5 24.2496C7.5 24.6636 7.164 24.9996 6.75 24.9996Z" fill="white"></path> <path d="M23.5455 10.8111L18.2955 8.56113C18.2019 8.52104 18.1011 8.50038 17.9993 8.50038C17.8974 8.50038 17.7966 8.52104 17.703 8.56113L12.453 10.8111C12.1785 10.9281 12 11.1996 12 11.4996V14.4996C12 18.6261 13.5255 21.0381 17.6265 23.4006C17.742 23.4666 17.871 23.4996 18 23.4996C18.129 23.4996 18.258 23.4666 18.3735 23.4006C22.4745 21.0441 24 18.6321 24 14.4996V11.4996C24 11.1996 23.8215 10.9281 23.5455 10.8111ZM20.8365 14.2191L17.8365 17.9691C17.6925 18.1461 17.4765 18.2496 17.25 18.2496H17.2185C17.1005 18.2445 16.9855 18.2117 16.8825 18.1538C16.7796 18.096 16.6917 18.0147 16.626 17.9166L15.126 15.6666C14.8965 15.3216 14.9895 14.8566 15.3345 14.6271C15.6765 14.3991 16.143 14.4891 16.374 14.8356L17.3055 16.2321L19.6635 13.2831C19.923 12.9606 20.3955 12.9096 20.718 13.1661C21.042 13.4226 21.093 13.8951 20.8365 14.2191Z" fill="white"></path>

</svg>