<?xml version="1.0" encoding="UTF-8"?>
<svg xmlns="http://www.w3.org/2000/svg" width="30" height="30" viewBox="0 0 25 25" fill="none">
    <path d="M22.9091 3.27273V2.72727C22.9091 1.2 21.7091 0 20.1818 0C18.6545 0 17.4545 1.2 17.4545 2.72727V3.27273C16.8 3.27273 16.3636 3.70909 16.3636 4.36364V8.72727C16.3636 9.38182 16.8 9.81818 17.4545 9.81818H22.9091C23.5636 9.81818 24 9.38182 24 8.72727V4.36364C24 3.70909 23.5636 3.27273 22.9091 3.27273ZM22.0364 3.27273H18.3273V2.72727C18.3273 1.74545 19.2 0.872727 20.1818 0.872727C21.1637 0.872727 22.0364 1.74545 22.0364 2.72727V3.27273ZM19.5273 12C19.5273 12.3273 19.6364 12.7636 19.6364 13.0909C19.6364 15.3818 18.7636 17.4545 17.3455 18.9818C17.0182 18.1091 16.2545 17.4545 15.2727 17.4545H14.1818V14.1818C14.1818 13.5273 13.7455 13.0909 13.0909 13.0909H6.54545V10.9091H8.72727C9.38182 10.9091 9.81818 10.4727 9.81818 9.81818V7.63636H12C13.2 7.63636 14.1818 6.65455 14.1818 5.45455V2.72727C13.2 2.4 12 2.18182 10.9091 2.18182C4.90909 2.18182 0 7.09091 0 13.0909C0 19.0909 4.90909 24 10.9091 24C16.9091 24 21.8182 19.0909 21.8182 13.0909C21.8182 12.7636 21.8182 12.3273 21.7091 12H19.5273ZM9.81818 21.7091C5.56364 21.1636 2.18182 17.4545 2.18182 13.0909C2.18182 12.4364 2.29091 11.7818 2.4 11.1273L7.63636 16.3636V17.4545C7.63636 18.6545 8.61818 19.6364 9.81818 19.6364V21.7091Z" fill="white"></path>
</svg>
