<?xml version="1.0" encoding="UTF-8"?>
<svg xmlns="http://www.w3.org/2000/svg" width="45" height="45" viewBox="0 0 35 35" fill="none">
    <path fill-rule="evenodd" clip-rule="evenodd" d="M4.29297 8.82V27.6475H19.5877V8.82H4.29297ZM15.9805 22.0588C15.549 22.0588 15.1349 21.8889 14.8277 21.5859C14.3958 21.0504 14.0202 20.4718 13.7067 19.8594H10.1686C9.85201 20.4736 9.4709 21.0524 9.03172 21.5859C8.72517 21.8899 8.31061 22.0599 7.87891 22.0588C7.62391 22.0588 6.81641 22.0588 6.85359 21.1981C6.89078 20.3375 7.43797 17.1712 7.43797 17.1553C7.61703 16.2592 8.3944 15.6078 9.30797 15.5881C9.90297 15.5881 10.413 16.0078 10.9283 16.3319H12.9258C13.457 16.0078 13.9564 15.5881 14.5514 15.5881C15.4635 15.6117 16.2387 16.2614 16.4214 17.1553C16.4214 17.1553 16.9527 20.3853 17.0058 21.1981C17.0589 22.0109 16.2461 22.0588 15.9858 22.0588H15.9805ZM21.3514 8.82H23.1152V27.6475H21.3514V8.82ZM24.8842 8.82H26.648V27.6475H24.8842V8.82ZM28.417 8.82H30.1808V27.6475H28.417V8.82Z" fill="white"></path>
</svg>
