<?xml version="1.0" encoding="UTF-8"?> <svg xmlns="http://www.w3.org/2000/svg" width="143" height="36" viewBox="0 0 143 36" fill="none"> <path d="M51.048 13.894H51.076L53.89 5.004H55.976V15H54.8V5.928H54.772L51.804 15H50.278L47.408 5.928H47.38V15H46.232V5.004H48.29L51.048 13.894ZM64.953 11.29C64.953 11.8967 64.8737 12.438 64.715 12.914C64.5563 13.39 64.3277 13.796 64.029 14.132C63.7303 14.468 63.371 14.7247 62.951 14.902C62.531 15.0793 62.055 15.168 61.523 15.168C60.991 15.168 60.515 15.0793 60.095 14.902C59.675 14.7247 59.3157 14.468 59.017 14.132C58.7183 13.796 58.4897 13.39 58.331 12.914C58.1723 12.438 58.093 11.8967 58.093 11.29C58.093 10.6927 58.1723 10.156 58.331 9.68C58.499 9.19467 58.7277 8.78867 59.017 8.462C59.3063 8.13533 59.6657 7.88333 60.095 7.706C60.5243 7.52867 61.0003 7.44 61.523 7.44C62.055 7.44 62.531 7.52867 62.951 7.706C63.3803 7.88333 63.7397 8.13533 64.029 8.462C64.3277 8.78867 64.5563 9.19467 64.715 9.68C64.8737 10.156 64.953 10.6927 64.953 11.29ZM63.763 11.29C63.763 10.8607 63.7163 10.4687 63.623 10.114C63.539 9.75933 63.4037 9.456 63.217 9.204C63.0397 8.94267 62.8063 8.742 62.517 8.602C62.237 8.45267 61.9057 8.378 61.523 8.378C61.1403 8.378 60.8043 8.45267 60.515 8.602C60.235 8.742 60.0017 8.94267 59.815 9.204C59.6377 9.456 59.5023 9.75933 59.409 10.114C59.325 10.4687 59.283 10.8607 59.283 11.29C59.283 11.7193 59.3297 12.116 59.423 12.48C59.5163 12.8347 59.6517 13.1427 59.829 13.404C60.0157 13.6653 60.249 13.8707 60.529 14.02C60.809 14.16 61.1403 14.23 61.523 14.23C61.9057 14.23 62.237 14.16 62.517 14.02C62.8063 13.8707 63.0397 13.6653 63.217 13.404C63.4037 13.1427 63.539 12.8347 63.623 12.48C63.7163 12.116 63.763 11.7193 63.763 11.29ZM69.0434 11.094L65.8794 7.608H67.3914L70.3874 11.052H70.4154V7.608H71.6054V11.052H71.6334L74.6294 7.608H76.1414L72.9634 11.094L76.2814 15H74.7554L71.6334 11.234H71.6054V15H70.4154V11.234H70.3874L67.2654 15H65.7394L69.0434 11.094ZM77.7296 7.608H78.9196V10.716H82.6156V7.608H83.8056V15H82.6156V11.654H78.9196V15H77.7296V7.608ZM92.7061 11.29C92.7061 11.8967 92.6268 12.438 92.4681 12.914C92.3094 13.39 92.0808 13.796 91.7821 14.132C91.4834 14.468 91.1241 14.7247 90.7041 14.902C90.2841 15.0793 89.8081 15.168 89.2761 15.168C88.7441 15.168 88.2681 15.0793 87.8481 14.902C87.4281 14.7247 87.0688 14.468 86.7701 14.132C86.4714 13.796 86.2428 13.39 86.0841 12.914C85.9254 12.438 85.8461 11.8967 85.8461 11.29C85.8461 10.6927 85.9254 10.156 86.0841 9.68C86.2521 9.19467 86.4808 8.78867 86.7701 8.462C87.0594 8.13533 87.4188 7.88333 87.8481 7.706C88.2774 7.52867 88.7534 7.44 89.2761 7.44C89.8081 7.44 90.2841 7.52867 90.7041 7.706C91.1334 7.88333 91.4928 8.13533 91.7821 8.462C92.0808 8.78867 92.3094 9.19467 92.4681 9.68C92.6268 10.156 92.7061 10.6927 92.7061 11.29ZM91.5161 11.29C91.5161 10.8607 91.4694 10.4687 91.3761 10.114C91.2921 9.75933 91.1568 9.456 90.9701 9.204C90.7928 8.94267 90.5594 8.742 90.2701 8.602C89.9901 8.45267 89.6588 8.378 89.2761 8.378C88.8934 8.378 88.5574 8.45267 88.2681 8.602C87.9881 8.742 87.7548 8.94267 87.5681 9.204C87.3908 9.456 87.2554 9.75933 87.1621 10.114C87.0781 10.4687 87.0361 10.8607 87.0361 11.29C87.0361 11.7193 87.0828 12.116 87.1761 12.48C87.2694 12.8347 87.4048 13.1427 87.5821 13.404C87.7688 13.6653 88.0021 13.8707 88.2821 14.02C88.5621 14.16 88.8934 14.23 89.2761 14.23C89.6588 14.23 89.9901 14.16 90.2701 14.02C90.5594 13.8707 90.7928 13.6653 90.9701 13.404C91.1568 13.1427 91.2921 12.8347 91.3761 12.48C91.4694 12.116 91.5161 11.7193 91.5161 11.29ZM98.4827 7.608H99.6727V13.684H99.7007L103.187 7.608H104.783V15H103.593V8.868H103.565L100.037 15H98.4827V7.608ZM107.21 7.608H111.928V8.546H108.4V15H107.21V7.608ZM114.488 17.73H113.298V7.608H114.446V8.728H114.46C114.759 8.28 115.113 7.95333 115.524 7.748C115.944 7.54267 116.378 7.44 116.826 7.44C117.311 7.44 117.745 7.54267 118.128 7.748C118.52 7.944 118.847 8.21933 119.108 8.574C119.379 8.91933 119.584 9.32533 119.724 9.792C119.864 10.2587 119.934 10.7627 119.934 11.304C119.934 11.8453 119.859 12.354 119.71 12.83C119.57 13.2967 119.365 13.7027 119.094 14.048C118.833 14.3933 118.501 14.6687 118.1 14.874C117.708 15.07 117.269 15.168 116.784 15.168C116.336 15.168 115.921 15.0793 115.538 14.902C115.155 14.7247 114.815 14.4167 114.516 13.978H114.488V17.73ZM118.744 11.304C118.744 10.9027 118.697 10.5247 118.604 10.17C118.52 9.81533 118.389 9.50733 118.212 9.246C118.044 8.97533 117.825 8.76533 117.554 8.616C117.293 8.45733 116.989 8.378 116.644 8.378C116.289 8.378 115.972 8.45267 115.692 8.602C115.421 8.75133 115.188 8.96133 114.992 9.232C114.805 9.49333 114.661 9.80133 114.558 10.156C114.465 10.5107 114.418 10.8933 114.418 11.304C114.418 11.7147 114.465 12.0973 114.558 12.452C114.661 12.8067 114.805 13.1193 114.992 13.39C115.188 13.6513 115.421 13.8567 115.692 14.006C115.972 14.1553 116.289 14.23 116.644 14.23C116.989 14.23 117.293 14.1553 117.554 14.006C117.825 13.8473 118.044 13.6373 118.212 13.376C118.389 13.1053 118.52 12.7927 118.604 12.438C118.697 12.0833 118.744 11.7053 118.744 11.304ZM126.24 10.212C126.259 8.98933 125.661 8.378 124.448 8.378C124.149 8.378 123.837 8.41533 123.51 8.49C123.183 8.56467 122.866 8.672 122.558 8.812L122.292 7.874C122.581 7.75267 122.927 7.65 123.328 7.566C123.739 7.482 124.131 7.44 124.504 7.44C125.4 7.43067 126.109 7.64533 126.632 8.084C127.155 8.52267 127.421 9.19 127.43 10.086V13.32C127.43 13.5627 127.439 13.8427 127.458 14.16C127.486 14.468 127.523 14.748 127.57 15H126.52C126.436 14.692 126.38 14.3233 126.352 13.894H126.324C126.119 14.258 125.825 14.5613 125.442 14.804C125.059 15.0373 124.565 15.1587 123.958 15.168C123.65 15.168 123.351 15.126 123.062 15.042C122.773 14.958 122.511 14.8273 122.278 14.65C122.054 14.4633 121.872 14.23 121.732 13.95C121.592 13.67 121.522 13.334 121.522 12.942C121.531 12.41 121.657 11.9807 121.9 11.654C122.143 11.318 122.483 11.0567 122.922 10.87C123.37 10.6833 123.874 10.5573 124.434 10.492C125.003 10.4267 125.605 10.394 126.24 10.394V10.212ZM125.904 11.248C125.484 11.248 125.078 11.2713 124.686 11.318C124.303 11.3647 123.963 11.444 123.664 11.556C123.375 11.668 123.137 11.836 122.95 12.06C122.763 12.2747 122.67 12.5453 122.67 12.872C122.661 13.264 122.768 13.5907 122.992 13.852C123.225 14.104 123.571 14.23 124.028 14.23C124.392 14.23 124.714 14.1693 124.994 14.048C125.274 13.9173 125.503 13.7447 125.68 13.53C125.867 13.306 126.007 13.054 126.1 12.774C126.193 12.494 126.24 12.1953 126.24 11.878V11.248H125.904ZM131.194 8.546H128.786V7.608H134.792V8.546H132.384V15H131.194V8.546ZM136.17 7.608H137.36V10.408H139.292C139.647 10.408 139.978 10.45 140.286 10.534C140.604 10.618 140.879 10.7533 141.112 10.94C141.355 11.1173 141.546 11.3507 141.686 11.64C141.826 11.92 141.896 12.2653 141.896 12.676C141.896 13.124 141.826 13.4973 141.686 13.796C141.546 14.0947 141.355 14.3327 141.112 14.51C140.879 14.6873 140.604 14.8133 140.286 14.888C139.969 14.9627 139.633 15 139.278 15H136.17V7.608ZM139.04 14.062C139.292 14.062 139.512 14.0433 139.698 14.006C139.894 13.9687 140.067 13.9033 140.216 13.81C140.375 13.7073 140.496 13.5673 140.58 13.39C140.664 13.2127 140.706 12.9793 140.706 12.69C140.706 12.4287 140.664 12.2093 140.58 12.032C140.496 11.8547 140.38 11.7193 140.23 11.626C140.081 11.5233 139.913 11.4533 139.726 11.416C139.549 11.3693 139.353 11.346 139.138 11.346H137.36V14.062H139.04ZM52.644 29.29C52.644 29.8967 52.5647 30.438 52.406 30.914C52.2473 31.39 52.0187 31.796 51.72 32.132C51.4213 32.468 51.062 32.7247 50.642 32.902C50.222 33.0793 49.746 33.168 49.214 33.168C48.682 33.168 48.206 33.0793 47.786 32.902C47.366 32.7247 47.0067 32.468 46.708 32.132C46.4093 31.796 46.1807 31.39 46.022 30.914C45.8633 30.438 45.784 29.8967 45.784 29.29C45.784 28.6927 45.8633 28.156 46.022 27.68C46.19 27.1947 46.4187 26.7887 46.708 26.462C46.9973 26.1353 47.3567 25.8833 47.786 25.706C48.2153 25.5287 48.6913 25.44 49.214 25.44C49.746 25.44 50.222 25.5287 50.642 25.706C51.0713 25.8833 51.4307 26.1353 51.72 26.462C52.0187 26.7887 52.2473 27.1947 52.406 27.68C52.5647 28.156 52.644 28.6927 52.644 29.29ZM51.454 29.29C51.454 28.8607 51.4073 28.4687 51.314 28.114C51.23 27.7593 51.0947 27.456 50.908 27.204C50.7307 26.9427 50.4973 26.742 50.208 26.602C49.928 26.4527 49.5967 26.378 49.214 26.378C48.8313 26.378 48.4953 26.4527 48.206 26.602C47.926 26.742 47.6927 26.9427 47.506 27.204C47.3287 27.456 47.1933 27.7593 47.1 28.114C47.016 28.4687 46.974 28.8607 46.974 29.29C46.974 29.7193 47.0207 30.116 47.114 30.48C47.2073 30.8347 47.3427 31.1427 47.52 31.404C47.7067 31.6653 47.94 31.8707 48.22 32.02C48.5 32.16 48.8313 32.23 49.214 32.23C49.5967 32.23 49.928 32.16 50.208 32.02C50.4973 31.8707 50.7307 31.6653 50.908 31.404C51.0947 31.1427 51.23 30.8347 51.314 30.48C51.4073 30.116 51.454 29.7193 51.454 29.29ZM54.6839 25.608H55.8739V28.716H59.5699V25.608H60.7599V33H59.5699V29.654H55.8739V33H54.6839V25.608ZM62.7164 33.056C62.4831 33.056 62.2591 33.0373 62.0444 33V32.062C62.1191 32.0713 62.1844 32.0807 62.2404 32.09C62.3057 32.09 62.3664 32.09 62.4224 32.09C62.7957 32.09 63.0804 31.9827 63.2764 31.768C63.4817 31.544 63.6357 31.18 63.7384 30.676C63.8411 30.1627 63.9111 29.4953 63.9484 28.674C63.9857 27.8433 64.0231 26.8213 64.0604 25.608H69.1004V33H67.9104V26.546H65.1944C65.1851 27.5913 65.1524 28.5153 65.0964 29.318C65.0497 30.1207 64.9471 30.802 64.7884 31.362C64.6297 31.9127 64.3824 32.3327 64.0464 32.622C63.7197 32.9113 63.2764 33.056 62.7164 33.056ZM75.7785 28.212C75.7972 26.9893 75.1999 26.378 73.9865 26.378C73.6879 26.378 73.3752 26.4153 73.0485 26.49C72.7219 26.5647 72.4045 26.672 72.0965 26.812L71.8305 25.874C72.1199 25.7527 72.4652 25.65 72.8665 25.566C73.2772 25.482 73.6692 25.44 74.0425 25.44C74.9385 25.4307 75.6479 25.6453 76.1705 26.084C76.6932 26.5227 76.9592 27.19 76.9685 28.086V31.32C76.9685 31.5627 76.9779 31.8427 76.9965 32.16C77.0245 32.468 77.0619 32.748 77.1085 33H76.0585C75.9745 32.692 75.9185 32.3233 75.8905 31.894H75.8625C75.6572 32.258 75.3632 32.5613 74.9805 32.804C74.5979 33.0373 74.1032 33.1587 73.4965 33.168C73.1885 33.168 72.8899 33.126 72.6005 33.042C72.3112 32.958 72.0499 32.8273 71.8165 32.65C71.5925 32.4633 71.4105 32.23 71.2705 31.95C71.1305 31.67 71.0605 31.334 71.0605 30.942C71.0699 30.41 71.1959 29.9807 71.4385 29.654C71.6812 29.318 72.0219 29.0567 72.4605 28.87C72.9085 28.6833 73.4125 28.5573 73.9725 28.492C74.5419 28.4267 75.1439 28.394 75.7785 28.394V28.212ZM75.4425 29.248C75.0225 29.248 74.6165 29.2713 74.2245 29.318C73.8419 29.3647 73.5012 29.444 73.2025 29.556C72.9132 29.668 72.6752 29.836 72.4885 30.06C72.3019 30.2747 72.2085 30.5453 72.2085 30.872C72.1992 31.264 72.3065 31.5907 72.5305 31.852C72.7639 32.104 73.1092 32.23 73.5665 32.23C73.9305 32.23 74.2525 32.1693 74.5325 32.048C74.8125 31.9173 75.0412 31.7447 75.2185 31.53C75.4052 31.306 75.5452 31.054 75.6385 30.774C75.7319 30.494 75.7785 30.1953 75.7785 29.878V29.248H75.4425ZM79.3745 25.608H80.5645V31.684H80.5925L84.0785 25.608H85.6745V33H84.4845V26.868H84.4565L80.9285 33H79.3745V25.608ZM82.5245 24.516C82.1232 24.516 81.7872 24.4647 81.5165 24.362C81.2458 24.25 81.0312 24.1053 80.8725 23.928C80.7138 23.7413 80.5972 23.5313 80.5225 23.298C80.4478 23.0553 80.4058 22.7987 80.3965 22.528H81.3345C81.3625 22.9107 81.4605 23.2 81.6285 23.396C81.8058 23.5827 82.1092 23.676 82.5385 23.676C82.9678 23.676 83.2665 23.5733 83.4345 23.368C83.6025 23.1627 83.6958 22.8827 83.7145 22.528H84.6525C84.6432 22.7987 84.6012 23.0553 84.5265 23.298C84.4518 23.5313 84.3352 23.7413 84.1765 23.928C84.0178 24.1053 83.8032 24.25 83.5325 24.362C83.2618 24.4647 82.9258 24.516 82.5245 24.516ZM88.1015 25.608H89.2915V28.716H92.9875V25.608H94.1775V33H92.9875V29.654H89.2915V33H88.1015V25.608Z" fill="white"></path> <path fill-rule="evenodd" clip-rule="evenodd" d="M24.5116 20.7584C26.0398 20.7556 27.5065 21.3604 28.5886 22.4395C29.6707 23.5186 30.2795 24.9836 30.2809 26.5119C30.2809 29.6873 27.7083 32.2624 24.5328 32.2653C21.3573 32.2682 18.7799 29.6979 18.7741 26.5225C18.7682 23.347 21.3361 20.7672 24.5116 20.7584ZM26.8331 28.7325C26.6462 29.4572 26.3526 30.1501 25.9619 30.7884C26.8914 30.4722 27.6931 29.8625 28.2463 29.0512L27.8947 28.9574C27.5423 28.869 27.1877 28.7962 26.8331 28.7325ZM22.1847 28.7272C21.7084 28.8089 21.2368 28.9153 20.7716 29.0459L20.8714 29.1869C21.4173 29.9275 22.1772 30.4851 23.0506 30.7831C22.6618 30.1445 22.3699 29.4516 22.1847 28.7272ZM25.5953 28.5625C24.874 28.5041 24.1491 28.5041 23.4278 28.5625C23.6531 29.3446 24.0284 30.0753 24.5328 30.7141C25.0261 30.0744 25.3873 29.343 25.5953 28.5625ZM28.7987 25.0669C28.2276 25.2471 27.6456 25.3908 27.0563 25.4972C27.0933 25.8288 27.1111 26.1623 27.1094 26.4959C27.1111 26.8314 27.0933 27.1666 27.0563 27.5C27.6465 27.6091 28.2287 27.7582 28.7987 27.9463C28.9529 27.4837 29.0318 26.9994 29.0325 26.5119C29.033 26.0208 28.9541 25.5328 28.7987 25.0669ZM20.2456 25.0775C20.0877 25.5374 20.0069 26.0203 20.0066 26.5066L19.9906 26.5119C19.9962 26.999 20.0824 27.4819 20.2456 27.9409C20.8144 27.7589 21.3948 27.6151 21.9828 27.5106C21.9297 27.1919 21.9297 26.8572 21.9297 26.5066C21.9306 26.173 21.9484 25.8396 21.9828 25.5078C21.3953 25.4008 20.8151 25.2571 20.2456 25.0775ZM25.8291 25.6725C25.3934 25.7362 24.9525 25.7362 24.5116 25.7362C24.0706 25.7362 23.635 25.715 23.1941 25.6725C23.1374 26.2289 23.1374 26.7896 23.1941 27.3459V27.3512C24.0704 27.2698 24.9524 27.268 25.8291 27.3459C25.8928 26.7899 25.8928 26.2285 25.8291 25.6725ZM24.5063 22.2991C24.0191 22.9425 23.6585 23.6726 23.4438 24.4506C24.1651 24.5091 24.8899 24.5091 25.6112 24.4506L25.5937 24.4512L25.5322 24.2435C25.3315 23.6103 25.0301 23.0134 24.6397 22.476L24.5063 22.2991ZM9.83313 12.8853C10.3331 12.8874 10.8246 13.0153 11.2622 13.2572C11.2356 13.4431 11.2356 13.6291 11.2356 13.8203C11.2347 15.2698 11.7487 16.6724 12.6859 17.7781C12.6008 17.9627 12.5014 18.1404 12.3884 18.3094C9.92389 19.2557 8.65522 21.2248 8.62725 24.2169L8.62719 24.4134H4.66406C4.66406 22.1397 5.64688 20.9019 7.96844 20.5141C8.13313 20.4822 8.42 20.4184 8.49969 20.1847C8.50418 20.1577 8.50568 20.1304 8.50418 20.1032L8.49969 20.0625V19.4037C7.34132 18.8043 6.62287 17.6 6.64563 16.2959C6.61553 15.4208 6.93456 14.5697 7.53244 13.9299C8.13032 13.2902 8.95799 12.9144 9.83313 12.8853ZM16.8403 9.38437C19.1247 9.38437 20.9841 11.3766 20.9841 13.8309C21.0088 15.4777 20.1271 17.0003 18.6972 17.8008L18.5616 17.8737V18.7131C18.5643 18.7671 18.5732 18.8206 18.5881 18.8725C18.6944 19.1753 19.0716 19.2603 19.3053 19.2975C20.0465 19.4048 20.7646 19.6346 21.4303 19.9775C19.6486 20.8179 18.2877 22.3452 17.6555 24.2051L17.5947 24.3922H10.0775C10.0775 21.4225 11.3578 19.8288 14.3966 19.2975C14.6303 19.2603 15.0075 19.1753 15.1138 18.8725C15.1181 18.8372 15.1195 18.8017 15.118 18.7662L15.1138 18.7131V17.8737C13.6072 17.0929 12.6713 15.5277 12.6966 13.8309C12.6159 11.4599 14.4695 9.47087 16.8403 9.38437ZM23.0719 22.23L23.0613 22.2353C22.1312 22.5564 21.3311 23.1719 20.7822 23.9884L21.1319 24.0846C21.4829 24.1757 21.8377 24.2518 22.1953 24.3125C22.383 23.5788 22.6784 22.8771 23.0719 22.23ZM25.9831 22.2406C26.3729 22.8814 26.6664 23.5758 26.8544 24.3019C27.331 24.2197 27.8027 24.1116 28.2675 23.9778L28.2548 23.9805L28.1573 23.8421C27.6465 23.1476 26.9486 22.6128 26.1452 22.3002L25.9831 22.2406ZM23.8741 12.8959C24.7497 12.9236 25.5782 13.299 26.1764 13.9391C26.7745 14.5791 27.0931 15.4311 27.0616 16.3066C27.0766 17.5527 26.4159 18.7093 25.335 19.3294C25.0475 19.2973 24.7583 19.2831 24.4691 19.2869C24.0234 19.2888 23.5788 19.3315 23.1409 19.4144C22.595 18.942 21.9689 18.5714 21.2922 18.32C21.1781 18.1517 21.0785 17.974 20.9947 17.7887C21.928 16.6812 22.4398 15.2793 22.4397 13.8309C22.4504 13.6434 22.4504 13.4554 22.4397 13.2678C22.8792 13.0259 23.3724 12.8981 23.8741 12.8959Z" fill="white"></path> </svg> 