<?xml version="1.0" encoding="UTF-8"?> <svg xmlns="http://www.w3.org/2000/svg" width="158" height="36" viewBox="0 0 158 36" fill="none"><path fill-rule="evenodd" clip-rule="evenodd" d="M4.29297 8.82V27.6475H19.5877V8.82H4.29297ZM15.9805 22.0588C15.549 22.0588 15.1349 21.8889 14.8277 21.5859C14.3958 21.0504 14.0202 20.4718 13.7067 19.8594H10.1686C9.85201 20.4736 9.4709 21.0524 9.03172 21.5859C8.72517 21.8899 8.31061 22.0599 7.87891 22.0588C7.62391 22.0588 6.81641 22.0588 6.85359 21.1981C6.89078 20.3375 7.43797 17.1712 7.43797 17.1553C7.61703 16.2592 8.3944 15.6078 9.30797 15.5881C9.90297 15.5881 10.413 16.0078 10.9283 16.3319H12.9258C13.457 16.0078 13.9564 15.5881 14.5514 15.5881C15.4635 15.6117 16.2387 16.2614 16.4214 17.1553C16.4214 17.1553 16.9527 20.3853 17.0058 21.1981C17.0589 22.0109 16.2461 22.0588 15.9858 22.0588H15.9805ZM21.3514 8.82H23.1152V27.6475H21.3514V8.82ZM24.8842 8.82H26.648V27.6475H24.8842V8.82ZM28.417 8.82H30.1808V27.6475H28.417V8.82Z" fill="white"></path><path d="M49.232 5.004H56.344V15H55.126V6.026H50.45V15H49.232V5.004ZM65.3143 11.29C65.3143 11.8967 65.235 12.438 65.0763 12.914C64.9176 13.39 64.689 13.796 64.3903 14.132C64.0916 14.468 63.7323 14.7247 63.3123 14.902C62.8923 15.0793 62.4163 15.168 61.8843 15.168C61.3523 15.168 60.8763 15.0793 60.4563 14.902C60.0363 14.7247 59.677 14.468 59.3783 14.132C59.0796 13.796 58.851 13.39 58.6923 12.914C58.5336 12.438 58.4543 11.8967 58.4543 11.29C58.4543 10.6927 58.5336 10.156 58.6923 9.68C58.8603 9.19467 59.089 8.78867 59.3783 8.462C59.6676 8.13533 60.027 7.88333 60.4563 7.706C60.8856 7.52867 61.3616 7.44 61.8843 7.44C62.4163 7.44 62.8923 7.52867 63.3123 7.706C63.7416 7.88333 64.101 8.13533 64.3903 8.462C64.689 8.78867 64.9176 9.19467 65.0763 9.68C65.235 10.156 65.3143 10.6927 65.3143 11.29ZM64.1243 11.29C64.1243 10.8607 64.0776 10.4687 63.9843 10.114C63.9003 9.75933 63.765 9.456 63.5783 9.204C63.401 8.94267 63.1676 8.742 62.8783 8.602C62.5983 8.45267 62.267 8.378 61.8843 8.378C61.5016 8.378 61.1656 8.45267 60.8763 8.602C60.5963 8.742 60.363 8.94267 60.1763 9.204C59.999 9.456 59.8636 9.75933 59.7703 10.114C59.6863 10.4687 59.6443 10.8607 59.6443 11.29C59.6443 11.7193 59.691 12.116 59.7843 12.48C59.8776 12.8347 60.013 13.1427 60.1903 13.404C60.377 13.6653 60.6103 13.8707 60.8903 14.02C61.1703 14.16 61.5016 14.23 61.8843 14.23C62.267 14.23 62.5983 14.16 62.8783 14.02C63.1676 13.8707 63.401 13.6653 63.5783 13.404C63.765 13.1427 63.9003 12.8347 63.9843 12.48C64.0776 12.116 64.1243 11.7193 64.1243 11.29ZM66.6188 15.056C66.3854 15.056 66.1614 15.0373 65.9468 15V14.062C66.0214 14.0713 66.0868 14.0807 66.1428 14.09C66.2081 14.09 66.2688 14.09 66.3248 14.09C66.6981 14.09 66.9828 13.9827 67.1788 13.768C67.3841 13.544 67.5381 13.18 67.6408 12.676C67.7434 12.1627 67.8134 11.4953 67.8508 10.674C67.8881 9.84333 67.9254 8.82133 67.9628 7.608H73.0028V15H71.8128V8.546H69.0968C69.0874 9.59133 69.0548 10.5153 68.9988 11.318C68.9521 12.1207 68.8494 12.802 68.6908 13.362C68.5321 13.9127 68.2848 14.3327 67.9488 14.622C67.6221 14.9113 67.1788 15.056 66.6188 15.056ZM75.4249 7.608H76.6149V10.716H80.3109V7.608H81.5009V15H80.3109V11.654H76.6149V15H75.4249V7.608ZM83.9194 7.608H85.1094V10.408H86.9014C87.2468 10.408 87.5781 10.45 87.8954 10.534C88.2128 10.618 88.4881 10.7533 88.7214 10.94C88.9641 11.1173 89.1554 11.3507 89.2954 11.64C89.4354 11.92 89.5054 12.2653 89.5054 12.676C89.5054 13.124 89.4354 13.4973 89.2954 13.796C89.1554 14.0947 88.9641 14.3327 88.7214 14.51C88.4881 14.6873 88.2128 14.8133 87.8954 14.888C87.5781 14.9627 87.2421 15 86.8874 15H83.9194V7.608ZM86.6494 14.062C86.9014 14.062 87.1254 14.0433 87.3214 14.006C87.5174 13.9687 87.6854 13.9033 87.8254 13.81C87.9748 13.7073 88.0914 13.5673 88.1754 13.39C88.2688 13.2127 88.3154 12.9793 88.3154 12.69C88.3154 12.4287 88.2734 12.2093 88.1894 12.032C88.1054 11.8547 87.9888 11.7193 87.8394 11.626C87.6994 11.5233 87.5314 11.4533 87.3354 11.416C87.1488 11.3693 86.9528 11.346 86.7474 11.346H85.1094V14.062H86.6494ZM90.5134 7.608H91.7034V15H90.5134V7.608ZM94.1229 7.608H95.3129V13.684H95.3409L98.8269 7.608H100.423V15H99.2329V8.868H99.2049L95.6769 15H94.1229V7.608ZM97.2729 6.516C96.8716 6.516 96.5356 6.46467 96.2649 6.362C95.9943 6.25 95.7796 6.10533 95.6209 5.928C95.4623 5.74133 95.3456 5.53133 95.2709 5.298C95.1963 5.05533 95.1543 4.79867 95.1449 4.528H96.0829C96.1109 4.91067 96.2089 5.2 96.3769 5.396C96.5543 5.58267 96.8576 5.676 97.2869 5.676C97.7163 5.676 98.0149 5.57333 98.1829 5.368C98.3509 5.16267 98.4443 4.88267 98.4629 4.528H99.4009C99.3916 4.79867 99.3496 5.05533 99.2749 5.298C99.2003 5.53133 99.0836 5.74133 98.9249 5.928C98.7663 6.10533 98.5516 6.25 98.2809 6.362C98.0103 6.46467 97.6743 6.516 97.2729 6.516ZM106.587 7.608H107.777V10.982H107.805L110.941 7.608H112.453L109.079 11.094L112.593 15H111.067L107.805 11.304H107.777V15H106.587V7.608ZM118.148 10.212C118.166 8.98933 117.569 8.378 116.356 8.378C116.057 8.378 115.744 8.41533 115.418 8.49C115.091 8.56467 114.774 8.672 114.466 8.812L114.2 7.874C114.489 7.75267 114.834 7.65 115.236 7.566C115.646 7.482 116.038 7.44 116.412 7.44C117.308 7.43067 118.017 7.64533 118.54 8.084C119.062 8.52267 119.328 9.19 119.338 10.086V13.32C119.338 13.5627 119.347 13.8427 119.366 14.16C119.394 14.468 119.431 14.748 119.478 15H118.428C118.344 14.692 118.288 14.3233 118.26 13.894H118.232C118.026 14.258 117.732 14.5613 117.35 14.804C116.967 15.0373 116.472 15.1587 115.866 15.168C115.558 15.168 115.259 15.126 114.97 15.042C114.68 14.958 114.419 14.8273 114.186 14.65C113.962 14.4633 113.78 14.23 113.64 13.95C113.5 13.67 113.43 13.334 113.43 12.942C113.439 12.41 113.565 11.9807 113.808 11.654C114.05 11.318 114.391 11.0567 114.83 10.87C115.278 10.6833 115.782 10.5573 116.342 10.492C116.911 10.4267 117.513 10.394 118.148 10.394V10.212ZM117.812 11.248C117.392 11.248 116.986 11.2713 116.594 11.318C116.211 11.3647 115.87 11.444 115.572 11.556C115.282 11.668 115.044 11.836 114.858 12.06C114.671 12.2747 114.578 12.5453 114.578 12.872C114.568 13.264 114.676 13.5907 114.9 13.852C115.133 14.104 115.478 14.23 115.936 14.23C116.3 14.23 116.622 14.1693 116.902 14.048C117.182 13.9173 117.41 13.7447 117.588 13.53C117.774 13.306 117.914 13.054 118.008 12.774C118.101 12.494 118.148 12.1953 118.148 11.878V11.248H117.812ZM123.102 8.546H120.694V7.608H126.7V8.546H124.292V15H123.102V8.546ZM132.197 10.212C132.216 8.98933 131.619 8.378 130.405 8.378C130.107 8.378 129.794 8.41533 129.467 8.49C129.141 8.56467 128.823 8.672 128.515 8.812L128.249 7.874C128.539 7.75267 128.884 7.65 129.285 7.566C129.696 7.482 130.088 7.44 130.461 7.44C131.357 7.43067 132.067 7.64533 132.589 8.084C133.112 8.52267 133.378 9.19 133.387 10.086V13.32C133.387 13.5627 133.397 13.8427 133.415 14.16C133.443 14.468 133.481 14.748 133.527 15H132.477C132.393 14.692 132.337 14.3233 132.309 13.894H132.281C132.076 14.258 131.782 14.5613 131.399 14.804C131.017 15.0373 130.522 15.1587 129.915 15.168C129.607 15.168 129.309 15.126 129.019 15.042C128.73 14.958 128.469 14.8273 128.235 14.65C128.011 14.4633 127.829 14.23 127.689 13.95C127.549 13.67 127.479 13.334 127.479 12.942C127.489 12.41 127.615 11.9807 127.857 11.654C128.1 11.318 128.441 11.0567 128.879 10.87C129.327 10.6833 129.831 10.5573 130.391 10.492C130.961 10.4267 131.563 10.394 132.197 10.394V10.212ZM131.861 11.248C131.441 11.248 131.035 11.2713 130.643 11.318C130.261 11.3647 129.92 11.444 129.621 11.556C129.332 11.668 129.094 11.836 128.907 12.06C128.721 12.2747 128.627 12.5453 128.627 12.872C128.618 13.264 128.725 13.5907 128.949 13.852C129.183 14.104 129.528 14.23 129.985 14.23C130.349 14.23 130.671 14.1693 130.951 14.048C131.231 13.9173 131.46 13.7447 131.637 13.53C131.824 13.306 131.964 13.054 132.057 12.774C132.151 12.494 132.197 12.1953 132.197 11.878V11.248H131.861ZM135.331 15.056C135.098 15.056 134.874 15.0373 134.659 15V14.062C134.734 14.0713 134.799 14.0807 134.855 14.09C134.921 14.09 134.981 14.09 135.037 14.09C135.411 14.09 135.695 13.9827 135.891 13.768C136.097 13.544 136.251 13.18 136.353 12.676C136.456 12.1627 136.526 11.4953 136.563 10.674C136.601 9.84333 136.638 8.82133 136.675 7.608H141.715V15H140.525V8.546H137.809C137.8 9.59133 137.767 10.5153 137.711 11.318C137.665 12.1207 137.562 12.802 137.403 13.362C137.245 13.9127 136.997 14.3327 136.661 14.622C136.335 14.9113 135.891 15.056 135.331 15.056ZM150.619 11.29C150.619 11.8967 150.54 12.438 150.381 12.914C150.223 13.39 149.994 13.796 149.695 14.132C149.397 14.468 149.037 14.7247 148.617 14.902C148.197 15.0793 147.721 15.168 147.189 15.168C146.657 15.168 146.181 15.0793 145.761 14.902C145.341 14.7247 144.982 14.468 144.683 14.132C144.385 13.796 144.156 13.39 143.997 12.914C143.839 12.438 143.759 11.8967 143.759 11.29C143.759 10.6927 143.839 10.156 143.997 9.68C144.165 9.19467 144.394 8.78867 144.683 8.462C144.973 8.13533 145.332 7.88333 145.761 7.706C146.191 7.52867 146.667 7.44 147.189 7.44C147.721 7.44 148.197 7.52867 148.617 7.706C149.047 7.88333 149.406 8.13533 149.695 8.462C149.994 8.78867 150.223 9.19467 150.381 9.68C150.54 10.156 150.619 10.6927 150.619 11.29ZM149.429 11.29C149.429 10.8607 149.383 10.4687 149.289 10.114C149.205 9.75933 149.07 9.456 148.883 9.204C148.706 8.94267 148.473 8.742 148.183 8.602C147.903 8.45267 147.572 8.378 147.189 8.378C146.807 8.378 146.471 8.45267 146.181 8.602C145.901 8.742 145.668 8.94267 145.481 9.204C145.304 9.456 145.169 9.75933 145.075 10.114C144.991 10.4687 144.949 10.8607 144.949 11.29C144.949 11.7193 144.996 12.116 145.089 12.48C145.183 12.8347 145.318 13.1427 145.495 13.404C145.682 13.6653 145.915 13.8707 146.195 14.02C146.475 14.16 146.807 14.23 147.189 14.23C147.572 14.23 147.903 14.16 148.183 14.02C148.473 13.8707 148.706 13.6653 148.883 13.404C149.07 13.1427 149.205 12.8347 149.289 12.48C149.383 12.116 149.429 11.7193 149.429 11.29ZM152.659 7.608H157.377V8.546H153.849V15H152.659V7.608ZM49.162 25.608H52.396C53.0587 25.5987 53.6047 25.7527 54.034 26.07C54.4633 26.378 54.678 26.854 54.678 27.498C54.678 27.9367 54.5567 28.2867 54.314 28.548C54.0713 28.8093 53.7633 28.9913 53.39 29.094V29.108C53.586 29.1453 53.7727 29.2107 53.95 29.304C54.1273 29.3973 54.286 29.5187 54.426 29.668C54.566 29.8173 54.678 29.9993 54.762 30.214C54.846 30.4193 54.888 30.6573 54.888 30.928C54.888 31.1987 54.8413 31.46 54.748 31.712C54.664 31.964 54.524 32.188 54.328 32.384C54.1413 32.5707 53.8987 32.72 53.6 32.832C53.3107 32.944 52.9607 33 52.55 33H49.162V25.608ZM52.256 32.062C52.732 32.062 53.0913 31.9687 53.334 31.782C53.5767 31.586 53.698 31.2687 53.698 30.83C53.698 30.5873 53.6513 30.3913 53.558 30.242C53.474 30.0833 53.3573 29.962 53.208 29.878C53.0587 29.7847 52.8813 29.7193 52.676 29.682C52.4707 29.6447 52.256 29.626 52.032 29.626H50.352V32.062H52.256ZM52.13 28.716C52.5873 28.716 52.9373 28.632 53.18 28.464C53.4227 28.2867 53.5487 27.9973 53.558 27.596C53.558 27.3813 53.5207 27.2087 53.446 27.078C53.3713 26.938 53.2687 26.8307 53.138 26.756C53.0073 26.672 52.858 26.616 52.69 26.588C52.5313 26.56 52.368 26.546 52.2 26.546H50.352V28.716H52.13ZM61.7759 26.686C61.3279 26.4807 60.8426 26.378 60.3199 26.378C59.9093 26.378 59.5406 26.4573 59.2139 26.616C58.8966 26.7653 58.6259 26.9753 58.4019 27.246C58.1873 27.5073 58.0239 27.8153 57.9119 28.17C57.7999 28.5247 57.7439 28.9073 57.7439 29.318C57.7439 29.7193 57.7999 30.0973 57.9119 30.452C58.0239 30.8067 58.1873 31.1147 58.4019 31.376C58.6166 31.6373 58.8826 31.8473 59.1999 32.006C59.5266 32.1553 59.8999 32.23 60.3199 32.23C60.5906 32.23 60.8379 32.2113 61.0619 32.174C61.2859 32.1273 61.5333 32.0433 61.8039 31.922L61.9999 32.86C61.7013 32.972 61.4166 33.0513 61.1459 33.098C60.8753 33.1447 60.5953 33.168 60.3059 33.168C59.6899 33.168 59.1486 33.07 58.6819 32.874C58.2153 32.678 57.8233 32.412 57.5059 32.076C57.1979 31.7307 56.9599 31.3247 56.7919 30.858C56.6333 30.382 56.5539 29.8687 56.5539 29.318C56.5539 28.758 56.6379 28.24 56.8059 27.764C56.9833 27.288 57.2306 26.882 57.5479 26.546C57.8746 26.2007 58.2666 25.93 58.7239 25.734C59.1906 25.538 59.7133 25.44 60.2919 25.44C60.9639 25.44 61.5473 25.5427 62.0419 25.748L61.7759 26.686ZM64.3918 29.626C64.4291 30.4007 64.6764 31.0307 65.1338 31.516C65.5911 31.992 66.2258 32.23 67.0378 32.23C67.3644 32.23 67.7004 32.202 68.0458 32.146C68.3911 32.0807 68.7084 31.9873 68.9978 31.866L69.1938 32.776C68.8858 32.9067 68.5358 33.0047 68.1438 33.07C67.7611 33.1353 67.3738 33.168 66.9818 33.168C66.3658 33.1587 65.8291 33.0653 65.3718 32.888C64.9238 32.7013 64.5364 32.4307 64.2098 32.076C63.8831 31.7213 63.6404 31.3107 63.4818 30.844C63.3231 30.368 63.2438 29.8593 63.2438 29.318C63.2438 28.758 63.3184 28.2447 63.4678 27.778C63.6264 27.302 63.8504 26.8913 64.1398 26.546C64.4291 26.1913 64.7791 25.9207 65.1898 25.734C65.6004 25.538 66.0624 25.44 66.5758 25.44C67.0891 25.44 67.5371 25.5287 67.9198 25.706C68.3118 25.874 68.6338 26.1167 68.8858 26.434C69.1378 26.742 69.3244 27.12 69.4458 27.568C69.5764 28.016 69.6418 28.5107 69.6418 29.052V29.626H64.3918ZM66.5898 26.378C65.9458 26.378 65.4324 26.588 65.0498 27.008C64.6764 27.428 64.4571 27.988 64.3918 28.688H68.5638V28.632C68.5544 27.9227 68.3724 27.372 68.0178 26.98C67.6631 26.588 67.1871 26.3873 66.5898 26.378ZM74.6504 29.164L77.1844 33H75.8264L73.8944 29.948L71.9064 33H70.5764L73.1664 29.192L70.7864 25.608H72.1304L73.9364 28.45L75.7704 25.608H77.0724L74.6504 29.164ZM82.3925 25.608H83.5825V31.684H83.6105L87.0965 25.608H88.6925V33H87.5025V26.868H87.4745L83.9465 33H82.3925V25.608ZM91.1194 25.608H95.8374V26.546H92.3094V33H91.1194V25.608ZM98.3977 35.73H97.2077V25.608H98.3557V26.728H98.3697C98.6684 26.28 99.023 25.9533 99.4337 25.748C99.8537 25.5427 100.288 25.44 100.736 25.44C101.221 25.44 101.655 25.5427 102.038 25.748C102.43 25.944 102.756 26.2193 103.018 26.574C103.288 26.9193 103.494 27.3253 103.634 27.792C103.774 28.2587 103.844 28.7627 103.844 29.304C103.844 29.8453 103.769 30.354 103.62 30.83C103.48 31.2967 103.274 31.7027 103.004 32.048C102.742 32.3933 102.411 32.6687 102.01 32.874C101.618 33.07 101.179 33.168 100.694 33.168C100.246 33.168 99.8304 33.0793 99.4477 32.902C99.065 32.7247 98.7244 32.4167 98.4257 31.978H98.3977V35.73ZM102.654 29.304C102.654 28.9027 102.607 28.5247 102.514 28.17C102.43 27.8153 102.299 27.5073 102.122 27.246C101.954 26.9753 101.734 26.7653 101.464 26.616C101.202 26.4573 100.899 26.378 100.554 26.378C100.199 26.378 99.8817 26.4527 99.6017 26.602C99.331 26.7513 99.0977 26.9613 98.9017 27.232C98.715 27.4933 98.5704 27.8013 98.4677 28.156C98.3744 28.5107 98.3277 28.8933 98.3277 29.304C98.3277 29.7147 98.3744 30.0973 98.4677 30.452C98.5704 30.8067 98.715 31.1193 98.9017 31.39C99.0977 31.6513 99.331 31.8567 99.6017 32.006C99.8817 32.1553 100.199 32.23 100.554 32.23C100.899 32.23 101.202 32.1553 101.464 32.006C101.734 31.8473 101.954 31.6373 102.122 31.376C102.299 31.1053 102.43 30.7927 102.514 30.438C102.607 30.0833 102.654 29.7053 102.654 29.304Z" fill="white"></path></svg> 