<?xml version="1.0" encoding="UTF-8"?> <svg xmlns="http://www.w3.org/2000/svg" width="164" height="36" viewBox="0 0 164 36" fill="none"> <path d="M47.232 5.004H50.62C51.0587 5.004 51.46 5.05533 51.824 5.158C52.1973 5.25133 52.5193 5.40533 52.79 5.62C53.07 5.82533 53.2847 6.09133 53.434 6.418C53.5927 6.73533 53.672 7.118 53.672 7.566C53.6627 8.182 53.49 8.67667 53.154 9.05C52.8273 9.414 52.384 9.666 51.824 9.806V9.834C52.104 9.89 52.3747 9.97867 52.636 10.1C52.8973 10.212 53.1213 10.3613 53.308 10.548C53.504 10.7347 53.658 10.9633 53.77 11.234C53.8913 11.5047 53.952 11.8267 53.952 12.2C53.952 12.5733 53.8913 12.928 53.77 13.264C53.6487 13.6 53.462 13.8987 53.21 14.16C52.958 14.412 52.6313 14.6173 52.23 14.776C51.8287 14.9253 51.348 15 50.788 15H47.232V5.004ZM48.45 9.344H50.27C50.9513 9.344 51.4833 9.21333 51.866 8.952C52.2487 8.69067 52.4447 8.252 52.454 7.636C52.454 7.3 52.3933 7.02933 52.272 6.824C52.16 6.60933 52.006 6.446 51.81 6.334C51.614 6.21267 51.39 6.13333 51.138 6.096C50.8953 6.04933 50.6433 6.026 50.382 6.026H48.45V9.344ZM48.45 13.978H50.592C50.928 13.978 51.222 13.95 51.474 13.894C51.7353 13.8287 51.9593 13.7307 52.146 13.6C52.3327 13.46 52.4773 13.2733 52.58 13.04C52.6827 12.8067 52.734 12.5173 52.734 12.172C52.734 11.808 52.6687 11.5093 52.538 11.276C52.4073 11.0427 52.23 10.8607 52.006 10.73C51.7913 10.5993 51.53 10.506 51.222 10.45C50.9233 10.394 50.606 10.366 50.27 10.366H48.45V13.978ZM60.7603 8.686C60.3123 8.48067 59.827 8.378 59.3043 8.378C58.8936 8.378 58.525 8.45733 58.1983 8.616C57.881 8.76533 57.6103 8.97533 57.3863 9.246C57.1716 9.50733 57.0083 9.81533 56.8963 10.17C56.7843 10.5247 56.7283 10.9073 56.7283 11.318C56.7283 11.7193 56.7843 12.0973 56.8963 12.452C57.0083 12.8067 57.1716 13.1147 57.3863 13.376C57.601 13.6373 57.867 13.8473 58.1843 14.006C58.511 14.1553 58.8843 14.23 59.3043 14.23C59.575 14.23 59.8223 14.2113 60.0463 14.174C60.2703 14.1273 60.5176 14.0433 60.7883 13.922L60.9843 14.86C60.6856 14.972 60.401 15.0513 60.1303 15.098C59.8596 15.1447 59.5796 15.168 59.2903 15.168C58.6743 15.168 58.133 15.07 57.6663 14.874C57.1996 14.678 56.8076 14.412 56.4903 14.076C56.1823 13.7307 55.9443 13.3247 55.7763 12.858C55.6176 12.382 55.5383 11.8687 55.5383 11.318C55.5383 10.758 55.6223 10.24 55.7903 9.764C55.9676 9.288 56.215 8.882 56.5323 8.546C56.859 8.20067 57.251 7.93 57.7083 7.734C58.175 7.538 58.6976 7.44 59.2763 7.44C59.9483 7.44 60.5316 7.54267 61.0263 7.748L60.7603 8.686ZM63.3761 11.626C63.4135 12.4007 63.6608 13.0307 64.1181 13.516C64.5755 13.992 65.2101 14.23 66.0221 14.23C66.3488 14.23 66.6848 14.202 67.0301 14.146C67.3755 14.0807 67.6928 13.9873 67.9821 13.866L68.1781 14.776C67.8701 14.9067 67.5201 15.0047 67.1281 15.07C66.7455 15.1353 66.3581 15.168 65.9661 15.168C65.3501 15.1587 64.8135 15.0653 64.3561 14.888C63.9081 14.7013 63.5208 14.4307 63.1941 14.076C62.8675 13.7213 62.6248 13.3107 62.4661 12.844C62.3075 12.368 62.2281 11.8593 62.2281 11.318C62.2281 10.758 62.3028 10.2447 62.4521 9.778C62.6108 9.302 62.8348 8.89133 63.1241 8.546C63.4135 8.19133 63.7635 7.92067 64.1741 7.734C64.5848 7.538 65.0468 7.44 65.5601 7.44C66.0735 7.44 66.5215 7.52867 66.9041 7.706C67.2961 7.874 67.6181 8.11667 67.8701 8.434C68.1221 8.742 68.3088 9.12 68.4301 9.568C68.5608 10.016 68.6261 10.5107 68.6261 11.052V11.626H63.3761ZM65.5741 8.378C64.9301 8.378 64.4168 8.588 64.0341 9.008C63.6608 9.428 63.4415 9.988 63.3761 10.688H67.5481V10.632C67.5388 9.92267 67.3568 9.372 67.0021 8.98C66.6475 8.588 66.1715 8.38733 65.5741 8.378ZM75.7442 8.546H73.3362V7.608H79.3422V8.546H76.9342V15H75.7442V8.546ZM80.7206 7.608H83.9546C84.6173 7.59867 85.1633 7.75267 85.5926 8.07C86.0219 8.378 86.2366 8.854 86.2366 9.498C86.2366 9.93667 86.1153 10.2867 85.8726 10.548C85.6299 10.8093 85.3219 10.9913 84.9486 11.094V11.108C85.1446 11.1453 85.3313 11.2107 85.5086 11.304C85.6859 11.3973 85.8446 11.5187 85.9846 11.668C86.1246 11.8173 86.2366 11.9993 86.3206 12.214C86.4046 12.4193 86.4466 12.6573 86.4466 12.928C86.4466 13.1987 86.3999 13.46 86.3066 13.712C86.2226 13.964 86.0826 14.188 85.8866 14.384C85.6999 14.5707 85.4573 14.72 85.1586 14.832C84.8693 14.944 84.5193 15 84.1086 15H80.7206V7.608ZM83.8146 14.062C84.2906 14.062 84.6499 13.9687 84.8926 13.782C85.1353 13.586 85.2566 13.2687 85.2566 12.83C85.2566 12.5873 85.2099 12.3913 85.1166 12.242C85.0326 12.0833 84.9159 11.962 84.7666 11.878C84.6173 11.7847 84.4399 11.7193 84.2346 11.682C84.0293 11.6447 83.8146 11.626 83.5906 11.626H81.9106V14.062H83.8146ZM83.6886 10.716C84.1459 10.716 84.4959 10.632 84.7386 10.464C84.9813 10.2867 85.1073 9.99733 85.1166 9.596C85.1166 9.38133 85.0793 9.20867 85.0046 9.078C84.9299 8.938 84.8273 8.83067 84.6966 8.756C84.5659 8.672 84.4166 8.616 84.2486 8.588C84.0899 8.56 83.9266 8.546 83.7586 8.546H81.9106V10.716H83.6886ZM94.9725 11.29C94.9725 11.8967 94.8932 12.438 94.7345 12.914C94.5758 13.39 94.3472 13.796 94.0485 14.132C93.7498 14.468 93.3905 14.7247 92.9705 14.902C92.5505 15.0793 92.0745 15.168 91.5425 15.168C91.0105 15.168 90.5345 15.0793 90.1145 14.902C89.6945 14.7247 89.3352 14.468 89.0365 14.132C88.7378 13.796 88.5092 13.39 88.3505 12.914C88.1918 12.438 88.1125 11.8967 88.1125 11.29C88.1125 10.6927 88.1918 10.156 88.3505 9.68C88.5185 9.19467 88.7472 8.78867 89.0365 8.462C89.3258 8.13533 89.6852 7.88333 90.1145 7.706C90.5438 7.52867 91.0198 7.44 91.5425 7.44C92.0745 7.44 92.5505 7.52867 92.9705 7.706C93.3998 7.88333 93.7592 8.13533 94.0485 8.462C94.3472 8.78867 94.5758 9.19467 94.7345 9.68C94.8932 10.156 94.9725 10.6927 94.9725 11.29ZM93.7825 11.29C93.7825 10.8607 93.7358 10.4687 93.6425 10.114C93.5585 9.75933 93.4232 9.456 93.2365 9.204C93.0592 8.94267 92.8258 8.742 92.5365 8.602C92.2565 8.45267 91.9252 8.378 91.5425 8.378C91.1598 8.378 90.8238 8.45267 90.5345 8.602C90.2545 8.742 90.0212 8.94267 89.8345 9.204C89.6572 9.456 89.5218 9.75933 89.4285 10.114C89.3445 10.4687 89.3025 10.8607 89.3025 11.29C89.3025 11.7193 89.3492 12.116 89.4425 12.48C89.5358 12.8347 89.6712 13.1427 89.8485 13.404C90.0352 13.6653 90.2685 13.8707 90.5485 14.02C90.8285 14.16 91.1598 14.23 91.5425 14.23C91.9252 14.23 92.2565 14.16 92.5365 14.02C92.8258 13.8707 93.0592 13.6653 93.2365 13.404C93.4232 13.1427 93.5585 12.8347 93.6425 12.48C93.7358 12.116 93.7825 11.7193 93.7825 11.29ZM97.0124 7.608H98.2024V13.684H98.2304L101.716 7.608H103.312V15H102.122V8.868H102.094L98.5664 15H97.0124V7.608ZM109.476 7.608H110.666V13.684H110.694L114.18 7.608H115.776V15H114.586V8.868H114.558L111.03 15H109.476V7.608ZM118.203 7.608H122.921V8.546H119.393V15H118.203V7.608ZM125.481 17.73H124.291V7.608H125.439V8.728H125.453C125.752 8.28 126.107 7.95333 126.517 7.748C126.937 7.54267 127.371 7.44 127.819 7.44C128.305 7.44 128.739 7.54267 129.121 7.748C129.513 7.944 129.84 8.21933 130.101 8.574C130.372 8.91933 130.577 9.32533 130.717 9.792C130.857 10.2587 130.927 10.7627 130.927 11.304C130.927 11.8453 130.853 12.354 130.703 12.83C130.563 13.2967 130.358 13.7027 130.087 14.048C129.826 14.3933 129.495 14.6687 129.093 14.874C128.701 15.07 128.263 15.168 127.777 15.168C127.329 15.168 126.914 15.0793 126.531 14.902C126.149 14.7247 125.808 14.4167 125.509 13.978H125.481V17.73ZM129.737 11.304C129.737 10.9027 129.691 10.5247 129.597 10.17C129.513 9.81533 129.383 9.50733 129.205 9.246C129.037 8.97533 128.818 8.76533 128.547 8.616C128.286 8.45733 127.983 8.378 127.637 8.378C127.283 8.378 126.965 8.45267 126.685 8.602C126.415 8.75133 126.181 8.96133 125.985 9.232C125.799 9.49333 125.654 9.80133 125.551 10.156C125.458 10.5107 125.411 10.8933 125.411 11.304C125.411 11.7147 125.458 12.0973 125.551 12.452C125.654 12.8067 125.799 13.1193 125.985 13.39C126.181 13.6513 126.415 13.8567 126.685 14.006C126.965 14.1553 127.283 14.23 127.637 14.23C127.983 14.23 128.286 14.1553 128.547 14.006C128.818 13.8473 129.037 13.6373 129.205 13.376C129.383 13.1053 129.513 12.7927 129.597 12.438C129.691 12.0833 129.737 11.7053 129.737 11.304ZM132.977 7.608H134.167V10.408H135.959C136.305 10.408 136.636 10.45 136.953 10.534C137.271 10.618 137.546 10.7533 137.779 10.94C138.022 11.1173 138.213 11.3507 138.353 11.64C138.493 11.92 138.563 12.2653 138.563 12.676C138.563 13.124 138.493 13.4973 138.353 13.796C138.213 14.0947 138.022 14.3327 137.779 14.51C137.546 14.6873 137.271 14.8133 136.953 14.888C136.636 14.9627 136.3 15 135.945 15H132.977V7.608ZM135.707 14.062C135.959 14.062 136.183 14.0433 136.379 14.006C136.575 13.9687 136.743 13.9033 136.883 13.81C137.033 13.7073 137.149 13.5673 137.233 13.39C137.327 13.2127 137.373 12.9793 137.373 12.69C137.373 12.4287 137.331 12.2093 137.247 12.032C137.163 11.8547 137.047 11.7193 136.897 11.626C136.757 11.5233 136.589 11.4533 136.393 11.416C136.207 11.3693 136.011 11.346 135.805 11.346H134.167V14.062H135.707ZM139.571 7.608H140.761V15H139.571V7.608ZM52.006 26.686C51.558 26.4807 51.0727 26.378 50.55 26.378C50.1393 26.378 49.7707 26.4573 49.444 26.616C49.1267 26.7653 48.856 26.9753 48.632 27.246C48.4173 27.5073 48.254 27.8153 48.142 28.17C48.03 28.5247 47.974 28.9073 47.974 29.318C47.974 29.7193 48.03 30.0973 48.142 30.452C48.254 30.8067 48.4173 31.1147 48.632 31.376C48.8467 31.6373 49.1127 31.8473 49.43 32.006C49.7567 32.1553 50.13 32.23 50.55 32.23C50.8207 32.23 51.068 32.2113 51.292 32.174C51.516 32.1273 51.7633 32.0433 52.034 31.922L52.23 32.86C51.9313 32.972 51.6467 33.0513 51.376 33.098C51.1053 33.1447 50.8253 33.168 50.536 33.168C49.92 33.168 49.3787 33.07 48.912 32.874C48.4453 32.678 48.0533 32.412 47.736 32.076C47.428 31.7307 47.19 31.3247 47.022 30.858C46.8633 30.382 46.784 29.8687 46.784 29.318C46.784 28.758 46.868 28.24 47.036 27.764C47.2133 27.288 47.4607 26.882 47.778 26.546C48.1047 26.2007 48.4967 25.93 48.954 25.734C49.4207 25.538 49.9433 25.44 50.522 25.44C51.194 25.44 51.7773 25.5427 52.272 25.748L52.006 26.686ZM54.1253 25.608H55.3153V28.716H59.0113V25.608H60.2013V33H59.0113V29.654H55.3153V33H54.1253V25.608ZM69.1018 29.29C69.1018 29.8967 69.0225 30.438 68.8638 30.914C68.7051 31.39 68.4765 31.796 68.1778 32.132C67.8791 32.468 67.5198 32.7247 67.0998 32.902C66.6798 33.0793 66.2038 33.168 65.6718 33.168C65.1398 33.168 64.6638 33.0793 64.2438 32.902C63.8238 32.7247 63.4645 32.468 63.1658 32.132C62.8671 31.796 62.6385 31.39 62.4798 30.914C62.3211 30.438 62.2418 29.8967 62.2418 29.29C62.2418 28.6927 62.3211 28.156 62.4798 27.68C62.6478 27.1947 62.8765 26.7887 63.1658 26.462C63.4551 26.1353 63.8145 25.8833 64.2438 25.706C64.6731 25.5287 65.1491 25.44 65.6718 25.44C66.2038 25.44 66.6798 25.5287 67.0998 25.706C67.5291 25.8833 67.8885 26.1353 68.1778 26.462C68.4765 26.7887 68.7051 27.1947 68.8638 27.68C69.0225 28.156 69.1018 28.6927 69.1018 29.29ZM67.9118 29.29C67.9118 28.8607 67.8651 28.4687 67.7718 28.114C67.6878 27.7593 67.5525 27.456 67.3658 27.204C67.1885 26.9427 66.9551 26.742 66.6658 26.602C66.3858 26.4527 66.0545 26.378 65.6718 26.378C65.2891 26.378 64.9531 26.4527 64.6638 26.602C64.3838 26.742 64.1505 26.9427 63.9638 27.204C63.7865 27.456 63.6511 27.7593 63.5578 28.114C63.4738 28.4687 63.4318 28.8607 63.4318 29.29C63.4318 29.7193 63.4785 30.116 63.5718 30.48C63.6651 30.8347 63.8005 31.1427 63.9778 31.404C64.1645 31.6653 64.3978 31.8707 64.6778 32.02C64.9578 32.16 65.2891 32.23 65.6718 32.23C66.0545 32.23 66.3858 32.16 66.6658 32.02C66.9551 31.8707 67.1885 31.6653 67.3658 31.404C67.5525 31.1427 67.6878 30.8347 67.7718 30.48C67.8651 30.116 67.9118 29.7193 67.9118 29.29ZM71.1417 25.608H74.3757C75.0384 25.5987 75.5844 25.7527 76.0137 26.07C76.443 26.378 76.6577 26.854 76.6577 27.498C76.6577 27.9367 76.5364 28.2867 76.2937 28.548C76.051 28.8093 75.743 28.9913 75.3697 29.094V29.108C75.5657 29.1453 75.7524 29.2107 75.9297 29.304C76.107 29.3973 76.2657 29.5187 76.4057 29.668C76.5457 29.8173 76.6577 29.9993 76.7417 30.214C76.8257 30.4193 76.8677 30.6573 76.8677 30.928C76.8677 31.1987 76.821 31.46 76.7277 31.712C76.6437 31.964 76.5037 32.188 76.3077 32.384C76.121 32.5707 75.8784 32.72 75.5797 32.832C75.2904 32.944 74.9404 33 74.5297 33H71.1417V25.608ZM74.2357 32.062C74.7117 32.062 75.071 31.9687 75.3137 31.782C75.5564 31.586 75.6777 31.2687 75.6777 30.83C75.6777 30.5873 75.631 30.3913 75.5377 30.242C75.4537 30.0833 75.337 29.962 75.1877 29.878C75.0384 29.7847 74.861 29.7193 74.6557 29.682C74.4504 29.6447 74.2357 29.626 74.0117 29.626H72.3317V32.062H74.2357ZM74.1097 28.716C74.567 28.716 74.917 28.632 75.1597 28.464C75.4024 28.2867 75.5284 27.9973 75.5377 27.596C75.5377 27.3813 75.5004 27.2087 75.4257 27.078C75.351 26.938 75.2484 26.8307 75.1177 26.756C74.987 26.672 74.8377 26.616 74.6697 26.588C74.511 26.56 74.3477 26.546 74.1797 26.546H72.3317V28.716H74.1097ZM83.1676 28.212C83.1863 26.9893 82.5889 26.378 81.3756 26.378C81.0769 26.378 80.7643 26.4153 80.4376 26.49C80.1109 26.5647 79.7936 26.672 79.4856 26.812L79.2196 25.874C79.5089 25.7527 79.8543 25.65 80.2556 25.566C80.6663 25.482 81.0583 25.44 81.4316 25.44C82.3276 25.4307 83.0369 25.6453 83.5596 26.084C84.0823 26.5227 84.3483 27.19 84.3576 28.086V31.32C84.3576 31.5627 84.3669 31.8427 84.3856 32.16C84.4136 32.468 84.4509 32.748 84.4976 33H83.4476C83.3636 32.692 83.3076 32.3233 83.2796 31.894H83.2516C83.0463 32.258 82.7523 32.5613 82.3696 32.804C81.9869 33.0373 81.4923 33.1587 80.8856 33.168C80.5776 33.168 80.2789 33.126 79.9896 33.042C79.7003 32.958 79.4389 32.8273 79.2056 32.65C78.9816 32.4633 78.7996 32.23 78.6596 31.95C78.5196 31.67 78.4496 31.334 78.4496 30.942C78.4589 30.41 78.5849 29.9807 78.8276 29.654C79.0703 29.318 79.4109 29.0567 79.8496 28.87C80.2976 28.6833 80.8016 28.5573 81.3616 28.492C81.9309 28.4267 82.5329 28.394 83.1676 28.394V28.212ZM82.8316 29.248C82.4116 29.248 82.0056 29.2713 81.6136 29.318C81.2309 29.3647 80.8903 29.444 80.5916 29.556C80.3023 29.668 80.0643 29.836 79.8776 30.06C79.6909 30.2747 79.5976 30.5453 79.5976 30.872C79.5883 31.264 79.6956 31.5907 79.9196 31.852C80.1529 32.104 80.4983 32.23 80.9556 32.23C81.3196 32.23 81.6416 32.1693 81.9216 32.048C82.2016 31.9173 82.4303 31.7447 82.6076 31.53C82.7943 31.306 82.9343 31.054 83.0276 30.774C83.1209 30.494 83.1676 30.1953 83.1676 29.878V29.248H82.8316ZM89.5063 32.062H90.3183C90.5236 31.754 90.7009 31.4367 90.8503 31.11C90.9996 30.7833 91.1209 30.4147 91.2143 30.004C91.3169 29.5933 91.3916 29.1407 91.4383 28.646C91.4849 28.142 91.5083 27.5633 91.5083 26.91V25.608H96.5483V32.062H97.6963V35.142H96.7443L96.6323 33H90.5703L90.4583 35.142H89.5063V32.062ZM95.3583 32.062V26.546H92.6423V27.19C92.6516 28.1327 92.5816 29.0333 92.4323 29.892C92.2829 30.7413 92.0123 31.4647 91.6203 32.062H95.3583ZM105.641 29.29C105.641 29.8967 105.562 30.438 105.403 30.914C105.244 31.39 105.016 31.796 104.717 32.132C104.418 32.468 104.059 32.7247 103.639 32.902C103.219 33.0793 102.743 33.168 102.211 33.168C101.679 33.168 101.203 33.0793 100.783 32.902C100.363 32.7247 100.004 32.468 99.7049 32.132C99.4062 31.796 99.1775 31.39 99.0189 30.914C98.8602 30.438 98.7809 29.8967 98.7809 29.29C98.7809 28.6927 98.8602 28.156 99.0189 27.68C99.1869 27.1947 99.4155 26.7887 99.7049 26.462C99.9942 26.1353 100.354 25.8833 100.783 25.706C101.212 25.5287 101.688 25.44 102.211 25.44C102.743 25.44 103.219 25.5287 103.639 25.706C104.068 25.8833 104.428 26.1353 104.717 26.462C105.016 26.7887 105.244 27.1947 105.403 27.68C105.562 28.156 105.641 28.6927 105.641 29.29ZM104.451 29.29C104.451 28.8607 104.404 28.4687 104.311 28.114C104.227 27.7593 104.092 27.456 103.905 27.204C103.728 26.9427 103.494 26.742 103.205 26.602C102.925 26.4527 102.594 26.378 102.211 26.378C101.828 26.378 101.492 26.4527 101.203 26.602C100.923 26.742 100.69 26.9427 100.503 27.204C100.326 27.456 100.19 27.7593 100.097 28.114C100.013 28.4687 99.9709 28.8607 99.9709 29.29C99.9709 29.7193 100.018 30.116 100.111 30.48C100.204 30.8347 100.34 31.1427 100.517 31.404C100.704 31.6653 100.937 31.8707 101.217 32.02C101.497 32.16 101.828 32.23 102.211 32.23C102.594 32.23 102.925 32.16 103.205 32.02C103.494 31.8707 103.728 31.6653 103.905 31.404C104.092 31.1427 104.227 30.8347 104.311 30.48C104.404 30.116 104.451 29.7193 104.451 29.29ZM112.525 26.686C112.077 26.4807 111.591 26.378 111.069 26.378C110.658 26.378 110.289 26.4573 109.963 26.616C109.645 26.7653 109.375 26.9753 109.151 27.246C108.936 27.5073 108.773 27.8153 108.661 28.17C108.549 28.5247 108.493 28.9073 108.493 29.318C108.493 29.7193 108.549 30.0973 108.661 30.452C108.773 30.8067 108.936 31.1147 109.151 31.376C109.365 31.6373 109.631 31.8473 109.949 32.006C110.275 32.1553 110.649 32.23 111.069 32.23C111.339 32.23 111.587 32.2113 111.811 32.174C112.035 32.1273 112.282 32.0433 112.553 31.922L112.749 32.86C112.45 32.972 112.165 33.0513 111.895 33.098C111.624 33.1447 111.344 33.168 111.055 33.168C110.439 33.168 109.897 33.07 109.431 32.874C108.964 32.678 108.572 32.412 108.255 32.076C107.947 31.7307 107.709 31.3247 107.541 30.858C107.382 30.382 107.303 29.8687 107.303 29.318C107.303 28.758 107.387 28.24 107.555 27.764C107.732 27.288 107.979 26.882 108.297 26.546C108.623 26.2007 109.015 25.93 109.473 25.734C109.939 25.538 110.462 25.44 111.041 25.44C111.713 25.44 112.296 25.5427 112.791 25.748L112.525 26.686ZM116.002 26.546H113.594V25.608H119.6V26.546H117.192V33H116.002V26.546ZM123.414 31.558H123.442L125.626 25.608H126.886L122.854 35.73H121.608L122.77 32.874L119.914 25.608H121.216L123.414 31.558ZM128.242 25.608H134.234V33H133.044V26.546H129.432V33H128.242V25.608ZM136.655 25.608H137.845V28.716H141.541V25.608H142.731V33H141.541V29.654H137.845V33H136.655V25.608ZM145.15 25.608H146.34V28.408H148.132C148.477 28.408 148.808 28.45 149.126 28.534C149.443 28.618 149.718 28.7533 149.952 28.94C150.194 29.1173 150.386 29.3507 150.526 29.64C150.666 29.92 150.736 30.2653 150.736 30.676C150.736 31.124 150.666 31.4973 150.526 31.796C150.386 32.0947 150.194 32.3327 149.952 32.51C149.718 32.6873 149.443 32.8133 149.126 32.888C148.808 32.9627 148.472 33 148.118 33H145.15V25.608ZM147.88 32.062C148.132 32.062 148.356 32.0433 148.552 32.006C148.748 31.9687 148.916 31.9033 149.056 31.81C149.205 31.7073 149.322 31.5673 149.406 31.39C149.499 31.2127 149.546 30.9793 149.546 30.69C149.546 30.4287 149.504 30.2093 149.42 30.032C149.336 29.8547 149.219 29.7193 149.07 29.626C148.93 29.5233 148.762 29.4533 148.566 29.416C148.379 29.3693 148.183 29.346 147.978 29.346H146.34V32.062H147.88ZM151.744 25.608H152.934V33H151.744V25.608Z" fill="white"></path> <path fill-rule="evenodd" clip-rule="evenodd" d="M21.1825 28.5946H22.8826V9.76732H21.1825V28.5946ZM24.5831 28.5946H26.2832V9.76732H24.5831V28.5946ZM27.9832 28.5946H29.6833V9.76732H27.9832V28.5946ZM19.4822 9.76711V28.5944H4.74756V9.76711H19.4822ZM14.8731 19.5308C13.4575 19.5308 12.306 20.7241 12.306 22.1906C12.306 23.6571 13.4575 24.8503 14.8731 24.8503C16.2892 24.8503 17.4412 23.6571 17.4412 22.1906C17.4412 20.7241 16.2892 19.5308 14.8731 19.5308ZM10.8054 19.7374L9.01779 21.5891L7.2638 19.7725L6.63843 20.4203L8.39242 22.2369L6.65319 24.0387L7.27856 24.6855L9.01779 22.8836L10.7906 24.7206L11.416 24.0738L9.64316 22.2369L11.4307 20.3847L10.8054 19.7374ZM14.8733 20.439C15.806 20.439 16.5647 21.2247 16.5647 22.1905C16.5647 23.1563 15.806 23.9419 14.8733 23.9419C13.9406 23.9419 13.1824 23.1563 13.1824 22.1905C13.1824 21.2247 13.9406 20.439 14.8733 20.439ZM14.869 13.5697L12.0037 18.8159H17.8676L14.869 13.5697ZM11.419 13.9524H6.72493V18.8159H11.419V13.9524ZM14.8808 15.2255L16.4567 17.9834H13.3751L14.8808 15.2255ZM10.5858 14.8161V17.9516H7.55868V14.8161H10.5858Z" fill="white"></path> </svg> 