<?xml version="1.0" encoding="UTF-8"?> <svg xmlns="http://www.w3.org/2000/svg" width="133" height="24" viewBox="0 0 133 24" fill="none"> <path d="M39.232 8.004H40.45V12.344H45.266V8.004H46.484V18H45.266V13.366H40.45V18H39.232V8.004ZM48.9827 10.608H50.1727V16.684H50.2007L53.6867 10.608H55.2827V18H54.0927V11.868H54.0647L50.5367 18H48.9827V10.608ZM57.7097 10.608H58.8997V13.982H58.9277L62.0637 10.608H63.5757L60.2017 14.094L63.7157 18H62.1897L58.9277 14.304H58.8997V18H57.7097V10.608ZM69.2707 13.212C69.2894 11.9893 68.6921 11.378 67.4787 11.378C67.1801 11.378 66.8674 11.4153 66.5407 11.49C66.2141 11.5647 65.8967 11.672 65.5887 11.812L65.3227 10.874C65.6121 10.7527 65.9574 10.65 66.3587 10.566C66.7694 10.482 67.1614 10.44 67.5347 10.44C68.4307 10.4307 69.1401 10.6453 69.6627 11.084C70.1854 11.5227 70.4514 12.19 70.4607 13.086V16.32C70.4607 16.5627 70.4701 16.8427 70.4887 17.16C70.5167 17.468 70.5541 17.748 70.6007 18H69.5507C69.4667 17.692 69.4107 17.3233 69.3827 16.894H69.3547C69.1494 17.258 68.8554 17.5613 68.4727 17.804C68.0901 18.0373 67.5954 18.1587 66.9887 18.168C66.6807 18.168 66.3821 18.126 66.0927 18.042C65.8034 17.958 65.5421 17.8273 65.3087 17.65C65.0847 17.4633 64.9027 17.23 64.7627 16.95C64.6227 16.67 64.5527 16.334 64.5527 15.942C64.5621 15.41 64.6881 14.9807 64.9307 14.654C65.1734 14.318 65.5141 14.0567 65.9527 13.87C66.4007 13.6833 66.9047 13.5573 67.4647 13.492C68.0341 13.4267 68.6361 13.394 69.2707 13.394V13.212ZM68.9347 14.248C68.5147 14.248 68.1087 14.2713 67.7167 14.318C67.3341 14.3647 66.9934 14.444 66.6947 14.556C66.4054 14.668 66.1674 14.836 65.9807 15.06C65.7941 15.2747 65.7007 15.5453 65.7007 15.872C65.6914 16.264 65.7987 16.5907 66.0227 16.852C66.2561 17.104 66.6014 17.23 67.0587 17.23C67.4227 17.23 67.7447 17.1693 68.0247 17.048C68.3047 16.9173 68.5334 16.7447 68.7107 16.53C68.8974 16.306 69.0374 16.054 69.1307 15.774C69.2241 15.494 69.2707 15.1953 69.2707 14.878V14.248H68.9347ZM72.8667 10.608H74.0567V13.982H74.0847L77.2207 10.608H78.7327L75.3587 14.094L78.8727 18H77.3467L74.0847 14.304H74.0567V18H72.8667V10.608ZM86.3803 14.29C86.3803 14.8967 86.301 15.438 86.1423 15.914C85.9837 16.39 85.755 16.796 85.4563 17.132C85.1577 17.468 84.7983 17.7247 84.3783 17.902C83.9583 18.0793 83.4823 18.168 82.9503 18.168C82.4183 18.168 81.9423 18.0793 81.5223 17.902C81.1023 17.7247 80.743 17.468 80.4443 17.132C80.1457 16.796 79.917 16.39 79.7583 15.914C79.5997 15.438 79.5203 14.8967 79.5203 14.29C79.5203 13.6927 79.5997 13.156 79.7583 12.68C79.9263 12.1947 80.155 11.7887 80.4443 11.462C80.7337 11.1353 81.093 10.8833 81.5223 10.706C81.9517 10.5287 82.4277 10.44 82.9503 10.44C83.4823 10.44 83.9583 10.5287 84.3783 10.706C84.8077 10.8833 85.167 11.1353 85.4563 11.462C85.755 11.7887 85.9837 12.1947 86.1423 12.68C86.301 13.156 86.3803 13.6927 86.3803 14.29ZM85.1903 14.29C85.1903 13.8607 85.1437 13.4687 85.0503 13.114C84.9663 12.7593 84.831 12.456 84.6443 12.204C84.467 11.9427 84.2337 11.742 83.9443 11.602C83.6643 11.4527 83.333 11.378 82.9503 11.378C82.5677 11.378 82.2317 11.4527 81.9423 11.602C81.6623 11.742 81.429 11.9427 81.2423 12.204C81.065 12.456 80.9297 12.7593 80.8363 13.114C80.7523 13.4687 80.7103 13.8607 80.7103 14.29C80.7103 14.7193 80.757 15.116 80.8503 15.48C80.9437 15.8347 81.079 16.1427 81.2563 16.404C81.443 16.6653 81.6763 16.8707 81.9563 17.02C82.2363 17.16 82.5677 17.23 82.9503 17.23C83.333 17.23 83.6643 17.16 83.9443 17.02C84.2337 16.8707 84.467 16.6653 84.6443 16.404C84.831 16.1427 84.9663 15.8347 85.0503 15.48C85.1437 15.116 85.1903 14.7193 85.1903 14.29ZM88.4202 10.608H93.1382V11.546H89.6102V18H88.4202V10.608ZM100.717 14.29C100.717 14.8967 100.638 15.438 100.479 15.914C100.32 16.39 100.092 16.796 99.793 17.132C99.4944 17.468 99.135 17.7247 98.715 17.902C98.295 18.0793 97.819 18.168 97.287 18.168C96.755 18.168 96.279 18.0793 95.859 17.902C95.439 17.7247 95.0797 17.468 94.781 17.132C94.4824 16.796 94.2537 16.39 94.095 15.914C93.9364 15.438 93.857 14.8967 93.857 14.29C93.857 13.6927 93.9364 13.156 94.095 12.68C94.263 12.1947 94.4917 11.7887 94.781 11.462C95.0704 11.1353 95.4297 10.8833 95.859 10.706C96.2884 10.5287 96.7644 10.44 97.287 10.44C97.819 10.44 98.295 10.5287 98.715 10.706C99.1444 10.8833 99.5037 11.1353 99.793 11.462C100.092 11.7887 100.32 12.1947 100.479 12.68C100.638 13.156 100.717 13.6927 100.717 14.29ZM99.527 14.29C99.527 13.8607 99.4804 13.4687 99.387 13.114C99.303 12.7593 99.1677 12.456 98.981 12.204C98.8037 11.9427 98.5704 11.742 98.281 11.602C98.001 11.4527 97.6697 11.378 97.287 11.378C96.9044 11.378 96.5684 11.4527 96.279 11.602C95.999 11.742 95.7657 11.9427 95.579 12.204C95.4017 12.456 95.2664 12.7593 95.173 13.114C95.089 13.4687 95.047 13.8607 95.047 14.29C95.047 14.7193 95.0937 15.116 95.187 15.48C95.2804 15.8347 95.4157 16.1427 95.593 16.404C95.7797 16.6653 96.013 16.8707 96.293 17.02C96.573 17.16 96.9044 17.23 97.287 17.23C97.6697 17.23 98.001 17.16 98.281 17.02C98.5704 16.8707 98.8037 16.6653 98.981 16.404C99.1677 16.1427 99.303 15.8347 99.387 15.48C99.4804 15.116 99.527 14.7193 99.527 14.29ZM105.374 8.004H106.676L109.714 16.894H109.742L112.766 8.004H114.068L110.484 18H108.93L105.374 8.004ZM115.441 8.004H118.689C119.156 8.004 119.585 8.05067 119.977 8.144C120.369 8.23733 120.714 8.39133 121.013 8.606C121.321 8.82067 121.564 9.11 121.741 9.474C121.918 9.838 122.007 10.2907 122.007 10.832C122.007 11.364 121.918 11.826 121.741 12.218C121.573 12.6007 121.33 12.9133 121.013 13.156C120.705 13.3893 120.36 13.5573 119.977 13.66C119.594 13.7627 119.174 13.814 118.717 13.814H116.659V18H115.441V8.004ZM116.659 12.792H118.605C118.932 12.792 119.221 12.764 119.473 12.708C119.734 12.6427 119.958 12.54 120.145 12.4C120.341 12.26 120.495 12.0687 120.607 11.826C120.728 11.574 120.789 11.2567 120.789 10.874C120.78 10.4727 120.719 10.1553 120.607 9.922C120.495 9.68867 120.332 9.50667 120.117 9.376C119.902 9.236 119.655 9.14267 119.375 9.096C119.104 9.04933 118.806 9.026 118.479 9.026H116.659V12.792ZM130.123 16.712H130.151V8.004H131.299V18H129.507L125.125 9.222H125.097V18H123.949V8.004H125.783L130.123 16.712Z" fill="white"></path> <g clip-path="url(#clip0_28_59)"> <path d="M22.9091 3.27273V2.72727C22.9091 1.2 21.7091 0 20.1818 0C18.6545 0 17.4545 1.2 17.4545 2.72727V3.27273C16.8 3.27273 16.3636 3.70909 16.3636 4.36364V8.72727C16.3636 9.38182 16.8 9.81818 17.4545 9.81818H22.9091C23.5636 9.81818 24 9.38182 24 8.72727V4.36364C24 3.70909 23.5636 3.27273 22.9091 3.27273ZM22.0364 3.27273H18.3273V2.72727C18.3273 1.74545 19.2 0.872727 20.1818 0.872727C21.1637 0.872727 22.0364 1.74545 22.0364 2.72727V3.27273ZM19.5273 12C19.5273 12.3273 19.6364 12.7636 19.6364 13.0909C19.6364 15.3818 18.7636 17.4545 17.3455 18.9818C17.0182 18.1091 16.2545 17.4545 15.2727 17.4545H14.1818V14.1818C14.1818 13.5273 13.7455 13.0909 13.0909 13.0909H6.54545V10.9091H8.72727C9.38182 10.9091 9.81818 10.4727 9.81818 9.81818V7.63636H12C13.2 7.63636 14.1818 6.65455 14.1818 5.45455V2.72727C13.2 2.4 12 2.18182 10.9091 2.18182C4.90909 2.18182 0 7.09091 0 13.0909C0 19.0909 4.90909 24 10.9091 24C16.9091 24 21.8182 19.0909 21.8182 13.0909C21.8182 12.7636 21.8182 12.3273 21.7091 12H19.5273ZM9.81818 21.7091C5.56364 21.1636 2.18182 17.4545 2.18182 13.0909C2.18182 12.4364 2.29091 11.7818 2.4 11.1273L7.63636 16.3636V17.4545C7.63636 18.6545 8.61818 19.6364 9.81818 19.6364V21.7091Z" fill="white"></path> </g> <defs> <clipPath id="clip0_28_59"> <rect width="24" height="24" fill="white"></rect> </clipPath> </defs> </svg> 