<?xml version="1.0" encoding="UTF-8"?> <svg xmlns="http://www.w3.org/2000/svg" width="55" height="55" viewBox="0 0 35 35" fill="none">
    <path fill-rule="evenodd" clip-rule="evenodd" d="M24.5116 20.7584C26.0398 20.7556 27.5065 21.3604 28.5886 22.4395C29.6707 23.5186 30.2795 24.9836 30.2809 26.5119C30.2809 29.6873 27.7083 32.2624 24.5328 32.2653C21.3573 32.2682 18.7799 29.6979 18.7741 26.5225C18.7682 23.347 21.3361 20.7672 24.5116 20.7584ZM26.8331 28.7325C26.6462 29.4572 26.3526 30.1501 25.9619 30.7884C26.8914 30.4722 27.6931 29.8625 28.2463 29.0512L27.8947 28.9574C27.5423 28.869 27.1877 28.7962 26.8331 28.7325ZM22.1847 28.7272C21.7084 28.8089 21.2368 28.9153 20.7716 29.0459L20.8714 29.1869C21.4173 29.9275 22.1772 30.4851 23.0506 30.7831C22.6618 30.1445 22.3699 29.4516 22.1847 28.7272ZM25.5953 28.5625C24.874 28.5041 24.1491 28.5041 23.4278 28.5625C23.6531 29.3446 24.0284 30.0753 24.5328 30.7141C25.0261 30.0744 25.3873 29.343 25.5953 28.5625ZM28.7987 25.0669C28.2276 25.2471 27.6456 25.3908 27.0563 25.4972C27.0933 25.8288 27.1111 26.1623 27.1094 26.4959C27.1111 26.8314 27.0933 27.1666 27.0563 27.5C27.6465 27.6091 28.2287 27.7582 28.7987 27.9463C28.9529 27.4837 29.0318 26.9994 29.0325 26.5119C29.033 26.0208 28.9541 25.5328 28.7987 25.0669ZM20.2456 25.0775C20.0877 25.5374 20.0069 26.0203 20.0066 26.5066L19.9906 26.5119C19.9962 26.999 20.0824 27.4819 20.2456 27.9409C20.8144 27.7589 21.3948 27.6151 21.9828 27.5106C21.9297 27.1919 21.9297 26.8572 21.9297 26.5066C21.9306 26.173 21.9484 25.8396 21.9828 25.5078C21.3953 25.4008 20.8151 25.2571 20.2456 25.0775ZM25.8291 25.6725C25.3934 25.7362 24.9525 25.7362 24.5116 25.7362C24.0706 25.7362 23.635 25.715 23.1941 25.6725C23.1374 26.2289 23.1374 26.7896 23.1941 27.3459V27.3512C24.0704 27.2698 24.9524 27.268 25.8291 27.3459C25.8928 26.7899 25.8928 26.2285 25.8291 25.6725ZM24.5063 22.2991C24.0191 22.9425 23.6585 23.6726 23.4438 24.4506C24.1651 24.5091 24.8899 24.5091 25.6112 24.4506L25.5937 24.4512L25.5322 24.2435C25.3315 23.6103 25.0301 23.0134 24.6397 22.476L24.5063 22.2991ZM9.83313 12.8853C10.3331 12.8874 10.8246 13.0153 11.2622 13.2572C11.2356 13.4431 11.2356 13.6291 11.2356 13.8203C11.2347 15.2698 11.7487 16.6724 12.6859 17.7781C12.6008 17.9627 12.5014 18.1404 12.3884 18.3094C9.92389 19.2557 8.65522 21.2248 8.62725 24.2169L8.62719 24.4134H4.66406C4.66406 22.1397 5.64688 20.9019 7.96844 20.5141C8.13313 20.4822 8.42 20.4184 8.49969 20.1847C8.50418 20.1577 8.50568 20.1304 8.50418 20.1032L8.49969 20.0625V19.4037C7.34132 18.8043 6.62287 17.6 6.64563 16.2959C6.61553 15.4208 6.93456 14.5697 7.53244 13.9299C8.13032 13.2902 8.95799 12.9144 9.83313 12.8853ZM16.8403 9.38437C19.1247 9.38437 20.9841 11.3766 20.9841 13.8309C21.0088 15.4777 20.1271 17.0003 18.6972 17.8008L18.5616 17.8737V18.7131C18.5643 18.7671 18.5732 18.8206 18.5881 18.8725C18.6944 19.1753 19.0716 19.2603 19.3053 19.2975C20.0465 19.4048 20.7646 19.6346 21.4303 19.9775C19.6486 20.8179 18.2877 22.3452 17.6555 24.2051L17.5947 24.3922H10.0775C10.0775 21.4225 11.3578 19.8288 14.3966 19.2975C14.6303 19.2603 15.0075 19.1753 15.1138 18.8725C15.1181 18.8372 15.1195 18.8017 15.118 18.7662L15.1138 18.7131V17.8737C13.6072 17.0929 12.6713 15.5277 12.6966 13.8309C12.6159 11.4599 14.4695 9.47087 16.8403 9.38437ZM23.0719 22.23L23.0613 22.2353C22.1312 22.5564 21.3311 23.1719 20.7822 23.9884L21.1319 24.0846C21.4829 24.1757 21.8377 24.2518 22.1953 24.3125C22.383 23.5788 22.6784 22.8771 23.0719 22.23ZM25.9831 22.2406C26.3729 22.8814 26.6664 23.5758 26.8544 24.3019C27.331 24.2197 27.8027 24.1116 28.2675 23.9778L28.2548 23.9805L28.1573 23.8421C27.6465 23.1476 26.9486 22.6128 26.1452 22.3002L25.9831 22.2406ZM23.8741 12.8959C24.7497 12.9236 25.5782 13.299 26.1764 13.9391C26.7745 14.5791 27.0931 15.4311 27.0616 16.3066C27.0766 17.5527 26.4159 18.7093 25.335 19.3294C25.0475 19.2973 24.7583 19.2831 24.4691 19.2869C24.0234 19.2888 23.5788 19.3315 23.1409 19.4144C22.595 18.942 21.9689 18.5714 21.2922 18.32C21.1781 18.1517 21.0785 17.974 20.9947 17.7887C21.928 16.6812 22.4398 15.2793 22.4397 13.8309C22.4504 13.6434 22.4504 13.4554 22.4397 13.2678C22.8792 13.0259 23.3724 12.8981 23.8741 12.8959Z" fill="white"></path>
</svg>