<?xml version="1.0" encoding="UTF-8"?> <svg xmlns="http://www.w3.org/2000/svg" width="35" height="45" viewBox="0 0 35 35" fill="none">
    <path fill-rule="evenodd" clip-rule="evenodd" d="M21.1825 28.5946H22.8826V9.76732H21.1825V28.5946ZM24.5831 28.5946H26.2832V9.76732H24.5831V28.5946ZM27.9832 28.5946H29.6833V9.76732H27.9832V28.5946ZM19.4822 9.76711V28.5944H4.74756V9.76711H19.4822ZM14.8731 19.5308C13.4575 19.5308 12.306 20.7241 12.306 22.1906C12.306 23.6571 13.4575 24.8503 14.8731 24.8503C16.2892 24.8503 17.4412 23.6571 17.4412 22.1906C17.4412 20.7241 16.2892 19.5308 14.8731 19.5308ZM10.8054 19.7374L9.01779 21.5891L7.2638 19.7725L6.63843 20.4203L8.39242 22.2369L6.65319 24.0387L7.27856 24.6855L9.01779 22.8836L10.7906 24.7206L11.416 24.0738L9.64316 22.2369L11.4307 20.3847L10.8054 19.7374ZM14.8733 20.439C15.806 20.439 16.5647 21.2247 16.5647 22.1905C16.5647 23.1563 15.806 23.9419 14.8733 23.9419C13.9406 23.9419 13.1824 23.1563 13.1824 22.1905C13.1824 21.2247 13.9406 20.439 14.8733 20.439ZM14.869 13.5697L12.0037 18.8159H17.8676L14.869 13.5697ZM11.419 13.9524H6.72493V18.8159H11.419V13.9524ZM14.8808 15.2255L16.4567 17.9834H13.3751L14.8808 15.2255ZM10.5858 14.8161V17.9516H7.55868V14.8161H10.5858Z" fill="white">
</path>
</svg>