<?xml version="1.0" encoding="UTF-8"?> <svg xmlns="http://www.w3.org/2000/svg" width="127" height="71" viewBox="0 0 127 71" fill="none"> <path fill-rule="evenodd" clip-rule="evenodd" d="M84.4363 65.6206C77.2498 68.8393 69.4482 70.4466 61.577 70.3301C48.3649 70.3301 36.5565 66.2902 29.9616 59.5496C29.097 58.6336 28.9596 57.2479 29.6274 56.1793C30.3035 55.073 31.6692 54.6044 32.8803 55.0633C42.0152 58.7432 51.7343 60.754 61.577 61.0004C68.3722 60.9217 75.1225 59.8848 81.629 57.9203L80.1363 53.9473C79.805 53.0275 79.9829 52.0008 80.6042 51.2466C81.2229 50.4883 82.2055 50.1289 83.1664 50.3092L99.208 53.0768C100.171 53.258 100.971 53.925 101.325 54.8401C101.656 55.7599 101.478 56.7866 100.857 57.5408L90.4297 70.0177C89.9093 70.6497 89.1308 71.0109 88.3131 70.9998H87.8675C86.8571 70.8685 86.0007 70.1908 85.6395 69.2365L84.4363 65.6206ZM55.8065 0C63.0554 0.160827 69.0055 5.79368 69.5755 13.0348C69.5755 13.0348 70.6242 19.197 71.6562 25.8799L71.9642 27.8947C72.7446 33.0549 73.4527 38.1894 73.6082 40.7562C73.987 47.0058 68.0159 47.0058 66.1444 47.0058C63.0171 47.0024 60.0165 45.7679 57.7894 43.5685C54.6543 39.6826 51.9221 35.4871 49.6349 31.047H23.9683C21.6879 35.4911 18.9552 39.6872 15.8138 43.5685C13.5867 45.7679 10.586 47.0024 7.45877 47.0058C5.60953 47.0058 -0.361528 46.9835 0.0172331 40.7562C0.172796 38.1986 0.877075 33.0657 1.6531 27.9043L1.95936 25.8888C2.60918 21.6547 3.26551 17.628 3.65945 15.2442L3.77481 14.5478C3.93384 13.59 4.02764 13.0348 4.02764 13.0348C4.60765 5.79846 10.552 0.171064 17.7967 0C22.119 0 25.7952 3.05783 29.5829 5.42375H44.0426C44.4191 5.18716 44.795 4.94364 45.1709 4.69696L46.2991 3.95117C49.3114 1.95701 52.3664 0 55.8065 0ZM107.942 0.200876C116.274 0.301777 123.187 6.68719 123.961 14.999C124.384 17.6104 126.657 31.3372 126.947 35.9351C127.233 38.6627 126.359 41.3849 124.54 43.4346C122.151 45.713 118.92 46.8865 115.628 46.671C111.566 46.6976 107.682 45.0033 104.934 42.0061C103.088 39.7427 101.42 37.3399 99.9432 34.8191H87.7115C86.2297 37.3489 84.5536 39.7593 82.6985 42.0285C81.63 43.2776 80.3185 44.2953 78.844 45.0193C79.322 43.5059 79.511 41.9157 79.401 40.3321C79.3565 39.417 79.2451 38.4126 79.0891 37.185C81.0541 34.6143 82.7981 31.8815 84.3027 29.0159H103.352C105.058 32.3127 107.088 35.4306 109.412 38.3233C111.063 39.9755 113.295 40.9131 115.628 40.9348C117.01 40.9348 121.443 41.0017 121.154 36.3146C120.864 31.6274 118.124 15.6686 118.124 15.6686C117.691 10.2976 113.275 6.12389 107.897 6.00407C104.689 6.00407 101.948 8.2807 99.1634 10.0217H88.4022C85.5949 8.23606 82.8545 6.00407 79.6684 6.00407C77.7686 6.01181 75.9115 6.56992 74.3212 7.6111C73.6934 5.75654 72.7841 4.00997 71.6253 2.43287C74.0542 0.970704 76.8348 0.199075 79.6684 0.200876C83.4766 0.434481 87.1226 1.8285 90.1177 4.19615H97.4924C100.488 1.8285 104.134 0.434481 107.942 0.200876Z" fill="url(#paint0_linear_3_19)"></path> <defs> <linearGradient id="paint0_linear_3_19" x1="63.5" y1="1.65256e-06" x2="63.5" y2="71" gradientUnits="userSpaceOnUse"> <stop stop-color="#676767"></stop> <stop offset="1" stop-color="#262626"></stop> </linearGradient> </defs> </svg> 