<?xml version="1.0" encoding="UTF-8"?> <svg xmlns="http://www.w3.org/2000/svg" width="66" height="66" viewBox="0 0 66 66" fill="none"> <path d="M24.1761 27.9265H20.6102V22.3877C20.6102 18.9799 22.0036 15.883 24.2497 13.6369C26.494 11.3935 29.5909 10 32.9987 10C36.4065 10 39.5052 11.3935 41.7495 13.6369C43.9929 15.883 45.3864 18.9799 45.3864 22.3877V24.8682C45.3864 25.3804 44.9686 25.7981 44.4565 25.7981H42.7503C42.2382 25.7981 41.8205 25.3804 41.8205 24.8682V22.3877C41.8205 19.9628 40.8268 17.758 39.2276 16.1579C37.6284 14.5587 35.4227 13.565 32.9978 13.565C30.5729 13.565 28.3682 14.5587 26.768 16.1579C25.1688 17.7571 24.1752 19.9628 24.1752 22.3877V27.9265H24.1761ZM32.9987 34.7672C30.8056 34.7672 28.8219 35.6531 27.3853 37.0924C25.946 38.529 25.0574 40.5127 25.0574 42.7058C25.0574 44.5216 25.6684 46.1945 26.6926 47.5322C27.0133 46.9105 27.4616 46.3661 27.9989 45.9276C28.8677 45.225 29.9674 44.8019 31.1596 44.8019H31.4759C31.0482 44.6105 30.661 44.3437 30.3348 44.0175C29.9847 43.668 29.7071 43.2527 29.518 42.7956C29.3288 42.3384 29.2318 41.8484 29.2325 41.3537C29.2325 40.3142 29.6556 39.3726 30.3348 38.6925C31.0177 38.0097 31.9592 37.5874 32.9987 37.5874C34.04 37.5874 34.9798 38.0106 35.6626 38.6925C36.3454 39.3726 36.765 40.3151 36.765 41.3537C36.765 42.395 36.3445 43.3374 35.6626 44.0175C35.3364 44.3437 34.9492 44.6105 34.5216 44.8019H34.8369C36.0309 44.8019 37.1315 45.225 37.9976 45.9276C38.5349 46.3661 38.9832 46.9105 39.3039 47.5322C40.33 46.1954 40.9391 44.5216 40.9391 42.7058C40.9391 40.5127 40.0505 38.529 38.6139 37.0924C37.1773 35.654 35.1909 34.7672 32.9987 34.7672ZM37.0659 47.0758C36.4577 46.5817 35.6805 46.2834 34.8378 46.2834H31.1605C30.3495 46.2828 29.5632 46.5628 28.9351 47.0758C28.4158 47.4963 28.016 48.0614 27.7995 48.7056C29.1929 49.9149 31.0114 50.6462 32.9996 50.6462C34.9887 50.6462 36.8072 49.9149 38.1998 48.7056C37.9836 48.066 37.5904 47.5009 37.0659 47.0758ZM35.2825 41.3537C35.2825 40.7248 35.0256 40.1543 34.6123 39.7419C34.401 39.5288 34.1494 39.3599 33.8723 39.2448C33.5951 39.1298 33.2979 39.0709 32.9978 39.0716C32.3689 39.0716 31.7984 39.3259 31.3833 39.7419C31.1714 39.9533 31.0033 40.2046 30.8888 40.4812C30.7742 40.7578 30.7154 41.0543 30.7158 41.3537C30.7158 41.9853 30.97 42.5558 31.3833 42.9682C31.7984 43.3832 32.3689 43.6384 32.9978 43.6384C33.6294 43.6384 34.1999 43.3814 34.6123 42.9682C35.0256 42.5558 35.2825 41.9853 35.2825 41.3537ZM50.6809 33.115V52.2993C50.6809 54.3343 49.0125 56 46.9775 56H19.019C16.9841 56 15.3184 54.3343 15.3184 52.2993V33.115C15.3184 31.0773 16.9841 29.4116 19.019 29.4116H46.9775C49.0125 29.4116 50.6809 31.0773 50.6809 33.115ZM42.4242 42.7058C42.4242 40.103 41.3677 37.7473 39.6633 36.0439C37.9572 34.3378 35.6015 33.283 32.9987 33.283C30.3959 33.283 28.0402 34.3378 26.3368 36.0439C24.6307 37.7473 23.5759 40.103 23.5759 42.7058C23.5759 45.3086 24.6307 47.6643 26.3368 49.3704C28.0402 51.0739 30.3959 52.1313 32.9987 52.1313C35.6015 52.1313 37.9572 51.0748 39.6633 49.3704C41.3668 47.6643 42.4242 45.3086 42.4242 42.7058Z" fill="#333333"></path> </svg> 