<?xml version="1.0" encoding="UTF-8"?> <svg xmlns="http://www.w3.org/2000/svg" width="66" height="66" viewBox="0 0 66 66" fill="none"> <path fill-rule="evenodd" clip-rule="evenodd" d="M8.33594 15.1799V51.7274H38.0256V15.1799H8.33594ZM31.0234 40.8787C30.1859 40.8787 29.382 40.549 28.7856 39.9609C27.9473 38.9212 27.2182 37.7981 26.6097 36.6093H19.7416C19.127 37.8017 18.3872 38.9252 17.5347 39.9609C16.9396 40.5509 16.1349 40.881 15.2969 40.8787C14.8019 40.8787 13.2344 40.8787 13.3066 39.2081C13.3787 37.5374 14.4409 31.3912 14.4409 31.3602C14.7885 29.6208 16.2975 28.3562 18.0709 28.3181C19.2259 28.3181 20.2159 29.1327 21.2162 29.7618H25.0938C26.125 29.1327 27.0944 28.3181 28.2494 28.3181C30.0199 28.3638 31.5248 29.625 31.8794 31.3602C31.8794 31.3602 32.9106 37.6302 33.0137 39.2081C33.1169 40.7859 31.5391 40.8787 31.0338 40.8787H31.0234ZM41.4494 15.1799H44.8731V51.7274H41.4494V15.1799ZM48.3072 15.1799H51.7309V51.7274H48.3072V15.1799ZM55.165 15.1799H58.5888V51.7274H55.165V15.1799Z" fill="#333333"></path> </svg> 