<?xml version="1.0" encoding="UTF-8"?> <svg xmlns="http://www.w3.org/2000/svg" width="66" height="66" viewBox="0 0 66 66" fill="none"> <path d="M55.5125 17.2221C50.2791 16.5218 45.5212 13.8193 42.2394 9.68304C42.0922 9.47216 41.8962 9.29994 41.6682 9.18102C41.4402 9.0621 41.1868 9 40.9296 9C40.6724 9 40.4191 9.0621 40.191 9.18102C39.963 9.29994 39.7671 9.47216 39.6199 9.68304C36.3486 13.829 31.5842 16.5294 26.3467 17.2061C25.96 17.2568 25.6052 17.4472 25.3492 17.7414C25.0933 18.0357 24.9538 18.4134 24.9571 18.8034V21.8222C28.8196 21.8415 32.5862 23.0274 35.7632 25.2244C38.9401 27.4215 41.3791 30.5271 42.7605 34.1342C44.1419 37.7414 44.4012 41.6817 43.5044 45.4388C42.6077 49.1959 40.5967 52.5943 37.7351 55.1888C38.4858 55.7318 39.3324 56.2589 40.0671 56.786C40.3099 56.9262 40.5853 57 40.8657 57C41.1461 57 41.4215 56.9262 41.6643 56.786C46.2941 54.0611 50.1341 50.1771 52.8061 45.5166C55.478 40.8561 56.8897 35.5798 56.9021 30.2077V18.8034C56.9016 18.4161 56.7603 18.0423 56.5047 17.7514C56.2491 17.4605 55.8965 17.2724 55.5125 17.2221Z" fill="#333333"></path> <path d="M24.9569 25.0166C21.7978 25.0166 18.7097 25.9534 16.083 27.7085C13.4564 29.4635 11.4091 31.9581 10.2002 34.8767C8.9913 37.7953 8.67499 41.0068 9.29129 44.1052C9.90759 47.2036 11.4288 50.0496 13.6626 52.2834C15.8964 54.5172 18.7425 56.0384 21.8408 56.6547C24.9392 57.271 28.1507 56.9547 31.0693 55.7458C33.9879 54.5369 36.4825 52.4896 38.2376 49.863C39.9927 47.2363 40.9294 44.1482 40.9294 40.9891C40.9294 36.7529 39.2466 32.6903 36.2512 29.6948C33.2558 26.6994 29.1931 25.0166 24.9569 25.0166ZM22.561 31.9646H25.7555V35.3189H22.561V31.9646ZM28.1514 50.0136H21.7624V46.8191H23.3597V40.4301H21.7624V37.2356H24.9569C25.3805 37.2356 25.7868 37.4039 26.0863 37.7034C26.3859 38.0029 26.5542 38.4092 26.5542 38.8328V46.8191H28.1514V50.0136Z" fill="#333333"></path> </svg> 