<?xml version="1.0" encoding="UTF-8"?> <svg xmlns="http://www.w3.org/2000/svg" width="66" height="66" viewBox="0 0 66 66" fill="none"> <path d="M30.25 24.7493V21.9993H13.75C12.2348 21.9993 11 23.234 11 24.7493V30.2493H30.8302C30.448 28.569 30.25 26.7595 30.25 24.7493ZM54.8872 35.7493C53.0117 38.6395 50.1517 41.098 46.0542 43.452C45.4245 43.8123 44.715 43.9993 44 43.9993C43.285 43.9993 42.5755 43.8123 41.954 43.4575C37.8565 41.098 34.9965 38.6368 33.1183 35.7493H11V49.4993C11 51.0173 12.2348 52.2493 13.75 52.2493H52.25C53.768 52.2493 55 51.0173 55 49.4993V35.7493H54.8872ZM23.375 43.9993H17.875C17.116 43.9993 16.5 43.3833 16.5 42.6243C16.5 41.8653 17.116 41.2493 17.875 41.2493H23.375C24.134 41.2493 24.75 41.8653 24.75 42.6243C24.75 43.3833 24.134 43.9993 23.375 43.9993Z" fill="#333333"></path> <path d="M54.1667 17.9871L44.5417 13.8621C44.3701 13.7886 44.1853 13.7507 43.9986 13.7507C43.8119 13.7507 43.6271 13.7886 43.4555 13.8621L33.8305 17.9871C33.3273 18.2016 33 18.6994 33 19.2494V24.7494C33 32.3146 35.7968 36.7366 43.3153 41.0679C43.527 41.1889 43.7635 41.2494 44 41.2494C44.2365 41.2494 44.473 41.1889 44.6847 41.0679C52.2032 36.7476 55 32.3256 55 24.7494V19.2494C55 18.6994 54.6727 18.2016 54.1667 17.9871ZM49.2002 24.2351L43.7002 31.1101C43.4362 31.4346 43.0402 31.6244 42.625 31.6244H42.5673C42.351 31.6149 42.14 31.5547 41.9513 31.4487C41.7626 31.3426 41.6015 31.1937 41.481 31.0139L38.731 26.8889C38.3102 26.2564 38.4807 25.4039 39.1132 24.9831C39.7402 24.5651 40.5955 24.7301 41.019 25.3654L42.7267 27.9256L47.0498 22.5191C47.5255 21.9279 48.3918 21.8344 48.983 22.3046C49.577 22.7749 49.6705 23.6411 49.2002 24.2351Z" fill="#333333"></path> </svg> 