<?xml version="1.0" encoding="UTF-8"?> <svg xmlns="http://www.w3.org/2000/svg" width="84" height="84" viewBox="0 0 84 84" fill="none"> <g clip-path="url(#clip0_3_23)"> <path fill-rule="evenodd" clip-rule="evenodd" d="M17.9529 19.0312C17.9529 29.5252 26.5237 38.0625 37.0588 38.0625C47.5939 38.0625 56.1647 29.5252 56.1647 19.0312C56.1647 8.53732 47.5939 0 37.0588 0C26.5237 0 17.9529 8.53732 17.9529 19.0312ZM47.7166 40.496C45.6581 43.8528 44.4706 47.7947 44.4706 52.0078C44.4706 64.2205 54.4453 74.1562 66.7059 74.1562C69.3015 74.1562 71.794 73.7095 74.1117 72.8915C74.1124 72.9446 74.1133 72.9978 74.1143 73.051C74.1159 73.146 74.1176 73.241 74.1176 73.3358V81.5391C74.1176 82.8982 73.0115 84 71.647 84H2.47059C1.10616 84 0 82.8982 0 81.5391V73.3358C0 63.4756 3.85478 54.2058 10.8544 47.2336C14.5575 43.545 18.9064 40.7339 23.647 38.9035C27.4808 41.4793 32.0966 42.9844 37.0588 42.9844C40.8846 42.9844 44.5024 42.0863 47.7166 40.496ZM49.4118 52.0078C49.4118 42.5091 57.1699 34.7812 66.7059 34.7812C76.2419 34.7812 84 42.5091 84 52.0078C84 61.5065 76.2419 69.2344 66.7059 69.2344C57.1699 69.2344 49.4118 61.5065 49.4118 52.0078ZM69.1765 54.4688H71.6471C73.0115 54.4688 74.1177 53.3669 74.1177 52.0078C74.1177 50.6487 73.0115 49.5469 71.6471 49.5469H69.1765V47.0859C69.1765 45.7268 68.0703 44.625 66.7059 44.625C65.3415 44.625 64.2353 45.7268 64.2353 47.0859V49.5469H61.7647C60.4003 49.5469 59.2941 50.6487 59.2941 52.0078C59.2941 53.3669 60.4003 54.4688 61.7647 54.4688H64.2353V56.9297C64.2353 58.2888 65.3415 59.3906 66.7059 59.3906C68.0703 59.3906 69.1765 58.2888 69.1765 56.9297V54.4688Z" fill="url(#paint0_linear_3_23)"></path> </g> <defs> <linearGradient id="paint0_linear_3_23" x1="42" y1="1.95514e-06" x2="42" y2="84" gradientUnits="userSpaceOnUse"> <stop stop-color="#0F6ABB"></stop> <stop offset="1" stop-color="#01429C"></stop> </linearGradient> <clipPath id="clip0_3_23"> <rect width="84" height="84" fill="white"></rect> </clipPath> </defs> </svg> 